<svg width="41" height="41" viewBox="0 0 41 41" fill="none" xmlns="http://www.w3.org/2000/svg">
<g clip-path="url(#clip0_1_1720)">
<path d="M32.8337 25.3205L30.1877 13.9655C29.7185 11.5655 28.4965 9.37757 26.6992 7.71939C24.9018 6.0612 22.6226 5.01914 20.1927 4.74454V3.79354C20.2053 3.62872 20.1837 3.46306 20.1293 3.30697C20.0749 3.15088 19.9888 3.00771 19.8765 2.88645C19.7642 2.76518 19.628 2.66843 19.4765 2.60227C19.325 2.5361 19.1615 2.50195 18.9962 2.50195C18.8309 2.50195 18.6674 2.5361 18.5159 2.60227C18.3644 2.66843 18.2282 2.76518 18.1159 2.88645C18.0035 3.00771 17.9175 3.15088 17.863 3.30697C17.8086 3.46306 17.7871 3.62872 17.7997 3.79354V4.74554C15.376 5.01722 13.1018 6.05331 11.3063 7.70375C9.51072 9.35419 8.28714 11.5333 7.81268 13.9255L5.16168 25.3205C4.95828 26.1836 5.07636 27.0912 5.49382 27.8735C5.91128 28.6557 6.5995 29.2591 7.42968 29.5705C9.24876 30.2388 11.1225 30.7477 13.0297 31.0915C13.0297 31.1715 13.0167 31.2515 13.0167 31.3315C13.0064 32.1237 13.1536 32.91 13.4497 33.6448C13.7457 34.3796 14.1848 35.0483 14.7413 35.6121C15.2978 36.1759 15.9608 36.6235 16.6917 36.929C17.4227 37.2346 18.207 37.3919 18.9992 37.3919C19.7914 37.3919 20.5757 37.2346 21.3066 36.929C22.0376 36.6235 22.7005 36.1759 23.2571 35.6121C23.8136 35.0483 24.2526 34.3796 24.5487 33.6448C24.8447 32.91 24.9919 32.1237 24.9817 31.3315C24.9817 31.2525 24.9627 31.1725 24.9587 31.0935C26.867 30.7493 28.7417 30.2397 30.5617 29.5705C31.3926 29.2598 32.0817 28.6568 32.5 27.8744C32.9182 27.0921 33.0368 26.1841 32.8337 25.3205ZM18.9957 34.9665C18.0538 34.9589 17.1523 34.5835 16.4833 33.9205C15.8143 33.2574 15.4308 32.3593 15.4147 31.4175C16.6037 31.5527 17.7991 31.6242 18.9957 31.6315C20.1923 31.6242 21.3877 31.5527 22.5767 31.4175C22.5605 32.3593 22.1771 33.2574 21.5081 33.9205C20.8391 34.5835 19.9375 34.9589 18.9957 34.9665Z" fill="#6E7191"/>
</g>
<defs>
<clipPath id="clip0_1_1720">
<rect width="40" height="40" fill="white" transform="translate(0.0126953 0.0234375)"/>
</clipPath>
</defs>
</svg>
