<svg width="41" height="41" viewBox="0 0 41 41" fill="none" xmlns="http://www.w3.org/2000/svg">
<g clip-path="url(#clip0_1_1716)">
<path d="M33.3337 25.3205L30.6877 13.9655C30.2185 11.5655 28.9965 9.37757 27.1992 7.71939C25.4018 6.0612 23.1226 5.01914 20.6927 4.74454V3.79354C20.7053 3.62872 20.6837 3.46306 20.6293 3.30697C20.5749 3.15088 20.4888 3.00771 20.3765 2.88645C20.2642 2.76518 20.128 2.66843 19.9765 2.60227C19.825 2.5361 19.6615 2.50195 19.4962 2.50195C19.3309 2.50195 19.1674 2.5361 19.0159 2.60227C18.8644 2.66843 18.7282 2.76518 18.6159 2.88645C18.5035 3.00771 18.4175 3.15088 18.363 3.30697C18.3086 3.46306 18.2871 3.62872 18.2997 3.79354V4.74554C15.876 5.01722 13.6018 6.05331 11.8063 7.70375C10.0107 9.35419 8.78714 11.5333 8.31268 13.9255L5.66168 25.3205C5.45828 26.1836 5.57636 27.0912 5.99382 27.8735C6.41128 28.6557 7.0995 29.2591 7.92968 29.5705C9.74876 30.2388 11.6225 30.7477 13.5297 31.0915C13.5297 31.1715 13.5167 31.2515 13.5167 31.3315C13.5064 32.1237 13.6536 32.91 13.9497 33.6448C14.2457 34.3796 14.6848 35.0483 15.2413 35.6121C15.7978 36.1759 16.4608 36.6235 17.1917 36.929C17.9227 37.2346 18.707 37.3919 19.4992 37.3919C20.2914 37.3919 21.0757 37.2346 21.8066 36.929C22.5376 36.6235 23.2005 36.1759 23.7571 35.6121C24.3136 35.0483 24.7526 34.3796 25.0487 33.6448C25.3447 32.91 25.4919 32.1237 25.4817 31.3315C25.4817 31.2525 25.4627 31.1725 25.4587 31.0935C27.367 30.7493 29.2417 30.2397 31.0617 29.5705C31.8926 29.2598 32.5817 28.6568 33 27.8744C33.4182 27.0921 33.5368 26.1841 33.3337 25.3205ZM19.4957 34.9665C18.5538 34.9589 17.6523 34.5835 16.9833 33.9205C16.3143 33.2574 15.9308 32.3593 15.9147 31.4175C17.1037 31.5527 18.2991 31.6242 19.4957 31.6315C20.6923 31.6242 21.8877 31.5527 23.0767 31.4175C23.0605 32.3593 22.6771 33.2574 22.0081 33.9205C21.3391 34.5835 20.4375 34.9589 19.4957 34.9665ZM30.2477 27.2945C23.3085 29.8482 15.6869 29.8482 8.74768 27.2945C8.47089 27.1904 8.2415 26.989 8.10237 26.7281C7.96324 26.4671 7.92389 26.1644 7.99168 25.8765L10.6507 14.4415C11.0377 12.3743 12.1364 10.5079 13.7561 9.16643C15.3758 7.82491 17.4142 7.09299 19.5173 7.09774C21.6204 7.10249 23.6555 7.84362 25.2691 9.19245C26.8827 10.5413 27.973 12.4126 28.3507 14.4815L31.0057 25.8765C31.0735 26.1644 31.0341 26.4671 30.895 26.7281C30.7559 26.989 30.5265 27.1904 30.2497 27.2945H30.2477Z" fill="#6E7191"/>
</g>
<defs>
<clipPath id="clip0_1_1716">
<rect width="40" height="40" fill="white" transform="translate(0.0126953 0.0234375)"/>
</clipPath>
</defs>
</svg>
