<svg width="40" height="41" viewBox="0 0 40 41" fill="none" xmlns="http://www.w3.org/2000/svg">
<g clip-path="url(#clip0_1_5006)">
<path d="M25.2278 3.48071C25.6542 3.48177 26.0628 3.65163 26.3643 3.95315C26.6659 4.25467 26.8357 4.66331 26.8368 5.08971V15.4237C26.8867 15.8169 26.8362 16.2164 26.69 16.5848C26.5438 16.9533 26.3067 17.2787 26.0008 17.5307C25.6012 17.6701 25.1726 17.7049 24.7559 17.6318C24.3391 17.5586 23.9479 17.3799 23.6198 17.1127L21.4968 15.8417C21.0364 15.5962 20.5226 15.4677 20.0008 15.4677C19.479 15.4677 18.9652 15.5962 18.5048 15.8417L16.3818 17.1127C16.0517 17.3763 15.6607 17.5527 15.2447 17.6257C14.8286 17.6988 14.4009 17.6661 14.0008 17.5307C13.6945 17.2789 13.457 16.9536 13.3104 16.5851C13.1639 16.2167 13.1131 15.8171 13.1628 15.4237V5.08971C13.1638 4.66331 13.3337 4.25467 13.6352 3.95315C13.9367 3.65163 14.3454 3.48177 14.7718 3.48071H25.2278Z" fill="#6E7191"/>
<path d="M12.824 37.741H27.1785C27.8518 37.7438 28.5246 37.6799 29.1853 37.55C29.8251 37.4212 30.45 37.2299 31.0525 36.979C31.6438 36.7341 32.2105 36.4325 32.7439 36.0789C33.272 35.7267 33.7649 35.3249 34.2166 34.8789C34.6674 34.4355 35.0741 33.9497 35.4314 33.428C35.791 32.9042 36.0984 32.3465 36.3494 31.7629C36.6028 31.1698 36.7971 30.5531 36.9295 29.9219C37.0627 29.2713 37.1299 28.6091 37.1297 27.9451V13.803C37.1305 13.2949 37.1031 12.7871 37.0476 12.282C36.9967 11.8078 36.9163 11.3373 36.8074 10.873C36.7048 10.4344 36.5733 10.003 36.4129 9.58203C36.2592 9.17993 36.0771 8.78933 35.8679 8.41309C35.6651 8.04908 35.4343 7.70106 35.1785 7.37207C34.9253 7.04782 34.6471 6.74371 34.3464 6.46289C34.0447 6.18083 33.7215 5.92274 33.3797 5.69092C33.0292 5.45372 32.6619 5.24324 32.28 5.06104C32.2153 5.02927 32.1483 5.00184 32.0798 4.979C31.8223 4.81335 31.5554 4.66313 31.28 4.52905C31.0749 4.42722 30.8489 4.37414 30.6199 4.37402C30.4168 4.37401 30.216 4.4147 30.0291 4.4939C29.8431 4.57279 29.6735 4.68574 29.5291 4.8269C29.3772 4.97386 29.2559 5.15005 29.1736 5.34473C29.0913 5.5394 29.0491 5.74861 29.0496 5.95996V15.4451C29.1091 16.2444 28.9557 17.045 28.6043 17.7654C28.2529 18.4857 27.7161 19.0998 27.0496 19.5449C26.4934 19.8593 25.8652 20.0219 25.2263 20.0168C24.1976 19.9845 23.1965 19.6736 22.3308 19.1169L20.2547 17.874C20.1802 17.8478 20.102 17.8363 20.0232 17.8401C19.9209 17.8364 19.818 17.8532 19.7224 17.8899L17.6785 19.1169C17.2154 19.3995 16.7206 19.6258 16.2039 19.791C15.7475 19.9367 15.2717 20.0127 14.7927 20.0168C14.1631 20.0221 13.5431 19.864 12.9929 19.5579C12.6694 19.3708 12.3768 19.1347 12.1257 18.8579C11.8692 18.5758 11.6549 18.2584 11.489 17.915C11.3114 17.5486 11.1792 17.1616 11.0964 16.7629C11.0056 16.3265 10.9609 15.8818 10.9627 15.436V5.95093C10.9634 5.73989 10.9222 5.53081 10.8406 5.33618C10.759 5.14156 10.639 4.9653 10.488 4.81787C10.3439 4.6763 10.1742 4.5633 9.98805 4.48486C9.80032 4.40584 9.59895 4.36517 9.39528 4.36499C9.16438 4.3654 8.93661 4.41844 8.72926 4.52002C8.45195 4.65473 8.18218 4.80556 7.92262 4.97192C7.85427 4.99416 7.78726 5.02097 7.72242 5.052C7.34041 5.234 6.97309 5.44448 6.62281 5.68188C6.28042 5.91346 5.95698 6.17156 5.65504 6.45386C5.35498 6.73494 5.07709 7.03903 4.82399 7.36304C4.56821 7.69224 4.33713 8.04024 4.13356 8.40405C3.92477 8.78049 3.74273 9.17106 3.58863 9.573C3.42897 9.99417 3.2978 10.4255 3.19508 10.864C3.08628 11.3284 3.00559 11.7988 2.95387 12.2729C2.89926 12.7781 2.87216 13.2859 2.87281 13.7939V27.936C2.87212 28.6001 2.93933 29.2626 3.07301 29.9131C3.20446 30.5446 3.39884 31.1611 3.65309 31.7539C3.90408 32.3375 4.21151 32.8952 4.57106 33.4189C4.9283 33.9404 5.3347 34.4262 5.78492 34.8699C6.23691 35.3159 6.73012 35.7179 7.25856 36.0701C7.79197 36.4238 8.35866 36.725 8.94996 36.97C9.55242 37.221 10.1783 37.4123 10.8181 37.541C11.4785 37.6739 12.1503 37.7409 12.824 37.741Z" fill="#6E7191"/>
</g>
<defs>
<clipPath id="clip0_1_5006">
<rect width="40" height="40" fill="white" transform="translate(-0.000244141 0.609619)"/>
</clipPath>
</defs>
</svg>
