<svg width="40" height="41" viewBox="0 0 40 41" fill="none" xmlns="http://www.w3.org/2000/svg">
<g clip-path="url(#clip0_1_5002)">
<path fill-rule="evenodd" clip-rule="evenodd" d="M15.2179 37.7387H24.7789C33.4319 37.7387 37.1279 34.0427 37.1279 25.3897V15.8287C37.1279 7.17974 33.4309 3.47974 24.7789 3.47974H15.2179C6.5689 3.47974 2.8689 7.17974 2.8689 15.8287V25.3897C2.8689 34.0427 6.5689 37.7387 15.2179 37.7387ZM13.2375 5.94322C13.8555 5.89361 14.515 5.86974 15.2179 5.86974H24.7789C25.4818 5.86974 26.1414 5.89363 26.7595 5.94329V15.399C26.8089 15.7885 26.7588 16.1843 26.6138 16.5492C26.4688 16.9142 26.2337 17.2365 25.9305 17.486C25.5362 17.6272 25.1121 17.6646 24.6991 17.5945C24.2862 17.5245 23.8982 17.3493 23.5725 17.086L21.4725 15.827C21.0217 15.5762 20.5144 15.4446 19.9985 15.4446C19.4826 15.4446 18.9753 15.5762 18.5245 15.827L16.4245 17.086C16.0972 17.3464 15.7093 17.5196 15.297 17.5896C14.8847 17.6595 14.4613 17.6239 14.0665 17.486C13.7605 17.2388 13.5234 16.9168 13.3782 16.5512C13.233 16.1856 13.1845 15.7888 13.2375 15.399V5.94322ZM10.8375 6.3188V15.399C10.7655 16.2146 10.9174 17.0345 11.2769 17.7701C11.6364 18.5058 12.1898 19.1295 12.8775 19.574C13.4383 19.8828 14.0693 20.0419 14.7095 20.036C15.7476 20.005 16.7585 19.697 17.6375 19.144L19.7435 17.881C19.902 17.8172 20.079 17.8172 20.2375 17.881L22.3455 19.144C23.029 19.6342 23.8312 19.9326 24.6689 20.0083C25.5066 20.0839 26.3493 19.9339 27.1095 19.574C27.7972 19.1295 28.3506 18.5058 28.7101 17.7701C29.0695 17.0345 29.2215 16.2146 29.1495 15.399V6.31665C33.1956 7.33376 34.7379 10.1826 34.7379 15.8287V25.3897C34.7379 32.7357 32.1249 35.3487 24.7789 35.3487H15.2179C7.8719 35.3487 5.2589 32.7357 5.2589 25.3897V15.8287C5.2589 10.1866 6.79729 7.33779 10.8375 6.3188Z" fill="#6E7191"/>
</g>
<defs>
<clipPath id="clip0_1_5002">
<rect width="40" height="40" fill="white" transform="translate(-0.000244141 0.609619)"/>
</clipPath>
</defs>
</svg>
