<svg width="41" height="41" viewBox="0 0 41 41" fill="none" xmlns="http://www.w3.org/2000/svg">
<g clip-path="url(#clip0_1_8167)">
<path d="M11.9989 18.1629H8.7989C4.9259 18.1629 2.7989 16.0339 2.7989 12.1629V8.96289C2.7989 5.09189 4.9279 2.96289 8.7989 2.96289H11.9989C15.8719 2.96289 17.9989 5.09189 17.9989 8.96289V12.1629C17.9989 16.0379 15.8739 18.1629 11.9989 18.1629ZM8.7989 5.36289C6.2719 5.36289 5.1989 6.43589 5.1989 8.96289V12.1629C5.1989 14.6919 6.2709 15.7629 8.7989 15.7629H11.9989C14.5279 15.7629 15.5989 14.6909 15.5989 12.1629V8.96289C15.5989 6.43389 14.5269 5.36289 11.9989 5.36289H8.7989Z" fill="#6E7191"/>
<path d="M31.2039 18.1629H28.0039C24.1309 18.1629 22.0039 16.0339 22.0039 12.1629V8.96289C22.0039 5.09189 24.1329 2.96289 28.0039 2.96289H31.2039C35.0769 2.96289 37.2039 5.09189 37.2039 8.96289V12.1629C37.2039 16.0379 35.0789 18.1629 31.2039 18.1629ZM28.0039 5.36289C25.4769 5.36289 24.4039 6.43589 24.4039 8.96289V12.1629C24.4039 14.6919 25.4759 15.7629 28.0039 15.7629H31.2039C33.7329 15.7629 34.8039 14.6909 34.8039 12.1629V8.96289C34.8039 6.43389 33.7319 5.36289 31.2039 5.36289H28.0039Z" fill="#6E7191"/>
<path d="M31.2039 37.3679H28.0039C24.1309 37.3679 22.0039 35.2389 22.0039 31.3679V28.1679C22.0039 24.2969 24.1329 22.1679 28.0039 22.1679H31.2039C35.0769 22.1679 37.2039 24.2969 37.2039 28.1679V31.3679C37.2039 35.2429 35.0789 37.3679 31.2039 37.3679ZM28.0039 24.5679C25.4769 24.5679 24.4039 25.6409 24.4039 28.1679V31.3679C24.4039 33.8969 25.4759 34.9679 28.0039 34.9679H31.2039C33.7329 34.9679 34.8039 33.8959 34.8039 31.3679V28.1679C34.8039 25.6389 33.7319 24.5679 31.2039 24.5679H28.0039Z" fill="#6E7191"/>
<path d="M11.9989 37.3679H8.7989C4.9259 37.3679 2.7989 35.2389 2.7989 31.3679V28.1679C2.7989 24.2969 4.9279 22.1679 8.7989 22.1679H11.9989C15.8719 22.1679 17.9989 24.2969 17.9989 28.1679V31.3679C17.9989 35.2429 15.8739 37.3679 11.9989 37.3679ZM8.7989 24.5679C6.2719 24.5679 5.1989 25.6409 5.1989 28.1679V31.3679C5.1989 33.8969 6.2709 34.9679 8.7989 34.9679H11.9989C14.5279 34.9679 15.5989 33.8959 15.5989 31.3679V28.1679C15.5989 25.6389 14.5269 24.5679 11.9989 24.5679H8.7989Z" fill="#6E7191"/>
</g>
<defs>
<clipPath id="clip0_1_8167">
<rect width="39.999" height="39.999" fill="white" transform="translate(0.00390625 0.167969)"/>
</clipPath>
</defs>
</svg>
