<svg width="41" height="41" viewBox="0 0 41 41" fill="none" xmlns="http://www.w3.org/2000/svg">
<g clip-path="url(#clip0_1_5068)">
<path d="M20.0079 35.1716H3.88744C3.5679 35.1716 3.26144 35.0447 3.0355 34.8187C2.80955 34.5928 2.68262 34.2863 2.68262 33.9668C2.68262 33.6472 2.80955 33.3408 3.0355 33.1148C3.26144 32.8889 3.5679 32.7619 3.88744 32.7619H5.04943V10.0391C5.04948 9.76165 5.14517 9.49274 5.32042 9.2777C5.49567 9.06266 5.73976 8.91466 6.01145 8.85863C6.06356 8.83651 6.11716 8.81806 6.17184 8.8034L19.625 5.19858C19.869 5.13279 20.1276 5.14576 20.3638 5.23564C20.6097 5.31178 20.8247 5.46462 20.9774 5.67178C21.1301 5.87894 21.2125 6.12955 21.2125 6.38691V9.18826C21.2125 9.5078 21.0856 9.81425 20.8597 10.0402C20.6337 10.2661 20.3273 10.3931 20.0077 10.3931C19.6882 10.3931 19.3817 10.2661 19.1558 10.0402C18.9298 9.81425 18.8029 9.5078 18.8029 9.18826V7.91342L7.45893 10.9529V32.7617H18.8029V13.9183C18.7868 13.839 18.7788 13.7582 18.7788 13.6773C18.7787 13.4597 18.8376 13.2462 18.9491 13.0594C19.0607 12.8726 19.2207 12.7195 19.4123 12.6164C19.5937 12.513 19.7989 12.4589 20.0077 12.4592C20.068 12.4592 20.1282 12.4637 20.1878 12.4726H33.5812C33.6409 12.4637 33.701 12.4592 33.7613 12.4592C34.0018 12.4592 34.2368 12.5311 34.4361 12.6658C34.6353 12.8004 34.7897 12.9916 34.8794 13.2148C34.9403 13.3614 34.9716 13.5186 34.9714 13.6774C34.9714 13.7164 34.9696 13.7549 34.9659 13.7931V30.4485C34.9659 30.768 34.839 31.0745 34.6131 31.3004C34.3871 31.5264 34.0807 31.6533 33.7611 31.6533C33.4416 31.6533 33.1351 31.5264 32.9092 31.3004C32.6832 31.0745 32.5563 30.768 32.5563 30.4485V14.8822H21.2127V32.7618H36.1284C36.4479 32.7618 36.7544 32.8887 36.9803 33.1146C37.2063 33.3406 37.3332 33.647 37.3332 33.9666C37.3332 34.2861 37.2063 34.5926 36.9803 34.8185C36.7544 35.0445 36.4479 35.1714 36.1284 35.1714L20.0079 35.1716ZM25.5633 30.1288C25.2438 30.1288 24.9373 30.0019 24.7114 29.7759C24.4854 29.55 24.3585 29.2435 24.3585 28.924C24.3585 28.6044 24.4854 28.298 24.7114 28.072C24.9373 27.8461 25.2438 27.7192 25.5633 27.7192H28.3644C28.684 27.7192 28.9904 27.8461 29.2163 28.072C29.4423 28.298 29.5692 28.6044 29.5692 28.924C29.5692 29.2435 29.4423 29.55 29.2163 29.7759C28.9904 30.0019 28.684 30.1288 28.3644 30.1288H25.5633ZM11.8095 30.1288C11.49 30.1288 11.1836 30.0019 10.9576 29.7759C10.7317 29.55 10.6047 29.2435 10.6047 28.924C10.6047 28.6044 10.7317 28.298 10.9576 28.072C11.1836 27.8461 11.49 27.7192 11.8095 27.7192H14.6109C14.9304 27.7192 15.2369 27.8461 15.4628 28.072C15.6888 28.298 15.8157 28.6044 15.8157 28.924C15.8157 29.2435 15.6888 29.55 15.4628 29.7759C15.2369 30.0019 14.9304 30.1288 14.6109 30.1288H11.8095ZM25.5633 25.0204C25.2438 25.0204 24.9373 24.8934 24.7114 24.6675C24.4854 24.4415 24.3585 24.1351 24.3585 23.8155C24.3585 23.496 24.4854 23.1896 24.7114 22.9636C24.9373 22.7377 25.2438 22.6107 25.5633 22.6107H28.3644C28.684 22.6107 28.9904 22.7377 29.2163 22.9636C29.4423 23.1896 29.5692 23.496 29.5692 23.8155C29.5692 24.1351 29.4423 24.4415 29.2163 24.6675C28.9904 24.8934 28.684 25.0204 28.3644 25.0204H25.5633ZM11.8095 25.0204C11.49 25.0204 11.1836 24.8934 10.9576 24.6675C10.7317 24.4415 10.6047 24.1351 10.6047 23.8155C10.6047 23.496 10.7317 23.1896 10.9576 22.9636C11.1836 22.7377 11.49 22.6107 11.8095 22.6107H14.6109C14.9304 22.6107 15.2369 22.7377 15.4628 22.9636C15.6888 23.1896 15.8157 23.496 15.8157 23.8155C15.8157 24.1351 15.6888 24.4415 15.4628 24.6675C15.2369 24.8934 14.9304 25.0204 14.6109 25.0204H11.8095ZM25.5633 19.9776C25.2438 19.9776 24.9373 19.8506 24.7114 19.6247C24.4854 19.3987 24.3585 19.0923 24.3585 18.7727C24.3585 18.4532 24.4854 18.1468 24.7114 17.9208C24.9373 17.6949 25.2438 17.5679 25.5633 17.5679H28.3644C28.684 17.5679 28.9904 17.6949 29.2163 17.9208C29.4423 18.1468 29.5692 18.4532 29.5692 18.7727C29.5692 19.0923 29.4423 19.3987 29.2163 19.6247C28.9904 19.8506 28.684 19.9776 28.3644 19.9776H25.5633ZM11.8095 19.9776C11.49 19.9776 11.1836 19.8506 10.9576 19.6247C10.7317 19.3987 10.6047 19.0923 10.6047 18.7727C10.6047 18.4532 10.7317 18.1468 10.9576 17.9208C11.1836 17.6949 11.49 17.5679 11.8095 17.5679H14.6109C14.9304 17.5679 15.2369 17.6949 15.4628 17.9208C15.6888 18.1468 15.8157 18.4532 15.8157 18.7727C15.8157 19.0923 15.6888 19.3987 15.4628 19.6247C15.2369 19.8506 14.9304 19.9776 14.6109 19.9776H11.8095ZM11.8095 14.8691C11.49 14.8691 11.1836 14.7422 10.9576 14.5162C10.7317 14.2903 10.6047 13.9839 10.6047 13.6643C10.6047 13.3448 10.7317 13.0383 10.9576 12.8124C11.1836 12.5864 11.49 12.4595 11.8095 12.4595H14.6109C14.9304 12.4595 15.2369 12.5864 15.4628 12.8124C15.6888 13.0383 15.8157 13.3448 15.8157 13.6643C15.8157 13.9839 15.6888 14.2903 15.4628 14.5162C15.2369 14.7422 14.9304 14.8691 14.6109 14.8691H11.8095Z" fill="#6E7191"/>
</g>
<defs>
<clipPath id="clip0_1_5068">
<rect width="40" height="40" fill="white" transform="translate(0.00195312 0.185547)"/>
</clipPath>
</defs>
</svg>
