<svg width="41" height="41" viewBox="0 0 41 41" fill="none" xmlns="http://www.w3.org/2000/svg">
<g clip-path="url(#clip0_1_3338)">
<path d="M31.4861 25.6776C31.4947 25.801 31.5012 25.8947 31.6074 25.9758C31.6651 26.0198 31.7361 26.0432 31.8086 26.042C31.8935 26.0386 31.9766 26.0152 32.0508 25.9739C32.3139 25.8393 32.5645 25.6818 32.7998 25.5029C33.1991 25.1993 33.5504 24.8373 33.8418 24.429C34.1371 24.0168 34.367 23.5618 34.5244 23.0798C34.6867 22.5806 34.7691 22.0589 34.7686 21.5339V10.7681C34.7696 10.1366 34.643 9.51129 34.3965 8.92994C34.2766 8.64976 34.1305 8.3818 33.959 8.12989C33.8137 7.91469 33.6509 7.71175 33.4727 7.52295C33.4622 7.48719 33.4429 7.4548 33.416 7.42896C33.2017 7.21406 32.9671 7.02007 32.7158 6.84986C32.4636 6.6791 32.196 6.53276 31.916 6.41285C31.3348 6.16585 30.7097 6.03917 30.0781 6.04004H19.3115C18.7862 6.0395 18.2641 6.12206 17.7646 6.28492C17.2829 6.44204 16.8286 6.67252 16.417 6.96802C16.0082 7.25955 15.6455 7.61116 15.3418 8.01099C15.163 8.24593 15.0057 8.49629 14.8711 8.75904C14.8281 8.82435 14.8047 8.90081 14.8047 8.97901C14.8047 9.05721 14.8281 9.13367 14.8711 9.19898C14.9525 9.30626 15.0456 9.3128 15.1695 9.3215C15.2131 9.32455 15.2605 9.32788 15.3125 9.33594H16.3125C16.4982 9.3224 16.6801 9.27605 16.8496 9.19898C17.0044 9.11362 17.1408 8.9979 17.25 8.85889C17.8062 8.33047 18.5433 8.03528 19.3105 8.03394H29.873C29.9388 8.04758 30.0051 8.05461 30.0723 8.05494C30.3951 8.05476 30.7157 8.11193 31.0186 8.22388C31.5294 8.42589 31.9683 8.7768 32.2773 9.23096C32.5864 9.68512 32.7516 10.2217 32.752 10.771C32.7524 10.8382 32.7589 10.9051 32.7725 10.971V21.5378C32.7711 22.3046 32.477 23.0418 31.9492 23.5979C31.8095 23.7066 31.6927 23.8429 31.6074 23.9981C31.5306 24.1672 31.4848 24.3486 31.4717 24.5339V25.5339C31.4798 25.5861 31.4831 25.6337 31.4861 25.6776Z" fill="#6E7191"/>
<path fill-rule="evenodd" clip-rule="evenodd" d="M14.6553 34.592L19.7061 34.593C25.5441 34.593 28.1436 31.988 28.1436 26.155V21.105C28.1436 15.267 25.5401 12.667 19.7061 12.667H14.6562C8.81825 12.667 6.21875 15.272 6.21875 21.105V26.155C6.21875 31.992 8.82127 34.592 14.6553 34.592ZM19.7051 32.5989H14.6553V32.5969C9.89827 32.5969 8.21091 30.9108 8.21191 26.1538V21.104C8.21191 16.347 9.89827 14.6589 14.6553 14.6589H19.7051C24.4621 14.6589 26.1484 16.347 26.1484 21.104V26.1538C26.1484 30.9118 24.4631 32.5989 19.7051 32.5989Z" fill="#6E7191"/>
</g>
<defs>
<clipPath id="clip0_1_3338">
<rect width="39.998" height="39.998" fill="white" transform="translate(0.501953 0.307617)"/>
</clipPath>
</defs>
</svg>
