<svg width="41" height="41" viewBox="0 0 41 41" fill="none" xmlns="http://www.w3.org/2000/svg">
<path d="M25.4929 21.6801H13.6829C13.39 21.678 13.1096 21.5607 12.9025 21.3535C12.6953 21.1464 12.578 20.866 12.5759 20.5731C12.578 20.2801 12.6953 19.9998 12.9025 19.7926C13.1096 19.5855 13.39 19.4682 13.6829 19.4661H25.4929C25.7859 19.4682 26.0662 19.5855 26.2734 19.7926C26.4805 19.9998 26.5978 20.2801 26.5999 20.5731C26.5978 20.866 26.4805 21.1464 26.2734 21.3535C26.0662 21.5607 25.7859 21.678 25.4929 21.6801Z" fill="#6E7191"/>
<path d="M12.2064 28.1459H24.0164C24.3093 28.1438 24.5897 28.0265 24.7968 27.8193C25.004 27.6122 25.1213 27.3318 25.1234 27.0389C25.1213 26.7459 25.004 26.4656 24.7968 26.2584C24.5897 26.0513 24.3093 25.934 24.0164 25.9319H12.2064C11.9134 25.934 11.6331 26.0513 11.4259 26.2584C11.2188 26.4656 11.1015 26.7459 11.0994 27.0389C11.1015 27.3318 11.2188 27.6122 11.4259 27.8193C11.6331 28.0265 11.9134 28.1438 12.2064 28.1459Z" fill="#6E7191"/>
<path fill-rule="evenodd" clip-rule="evenodd" d="M26.3719 6.18579H18.8784L19.2195 4.76874C19.258 4.62601 19.2676 4.47703 19.2478 4.33053C19.228 4.18403 19.1791 4.04297 19.104 3.91562C19.0289 3.78827 18.9292 3.67721 18.8106 3.58894C18.692 3.50068 18.5569 3.43699 18.4134 3.40162C18.2699 3.36625 18.1207 3.35991 17.9747 3.38297C17.8287 3.40604 17.6887 3.45804 17.5631 3.53592C17.4374 3.61381 17.3286 3.71601 17.2429 3.83652C17.1573 3.95704 17.0966 4.09345 17.0645 4.23774L16.5956 6.18579H13.3135C12.3302 6.21413 11.3836 6.56583 10.6204 7.18643C9.85717 7.80704 9.3198 8.66194 9.09149 9.61879L2.87149 31.5288C2.65924 32.2608 2.61049 33.0305 2.72869 33.7834C2.84689 34.5363 3.12915 35.2541 3.55549 35.8858C3.93758 36.4802 4.46139 36.9703 5.07982 37.312C5.69826 37.6538 6.39193 37.8365 7.09849 37.8438H25.9151L25.9354 37.8454H32.9924C33.6017 37.843 34.203 37.707 34.754 37.447C35.305 37.1869 35.7922 36.8092 36.1814 36.3404C37.0197 35.3572 37.4384 34.0842 37.3474 32.7954L35.891 11.3208C35.9248 10.5896 35.8089 9.85595 35.5465 9.16579C35.2545 8.31137 34.707 7.5673 33.9781 7.0343C33.2492 6.5013 32.3742 6.2051 31.4715 6.18579H28.6412L28.9609 4.70964C29.0174 4.42357 28.9589 4.12678 28.7981 3.88352C28.6373 3.64027 28.3872 3.47011 28.1019 3.4099C27.8166 3.34968 27.5191 3.40425 27.2737 3.56179C27.0284 3.71933 26.8549 3.96716 26.7909 4.25164L26.3719 6.18579ZM16.6065 11.9927C16.5171 11.9901 16.4282 11.98 16.3405 11.9627C16.1985 11.9279 16.0648 11.8653 15.9471 11.7786C15.8294 11.6919 15.7299 11.5827 15.6546 11.4574C15.5792 11.3321 15.5293 11.1932 15.5079 11.0486C15.4864 10.904 15.4937 10.7565 15.5295 10.6147L16.0109 8.61479H13.3285V8.63079C12.8374 8.64723 12.3652 8.82397 11.984 9.13401C11.6028 9.44405 11.3336 9.87035 11.2175 10.3478L5.00249 32.2578C4.89747 32.6281 4.87475 33.0169 4.9359 33.397C4.99705 33.777 5.1406 34.1391 5.35649 34.4578C5.54608 34.7525 5.80584 34.9956 6.11248 35.1652C6.41913 35.3349 6.76307 35.4258 7.11349 35.4298H26.5135C27.0271 35.4134 27.5196 35.2214 27.9089 34.8858C28.2981 34.5503 28.5606 34.0914 28.6525 33.5858L33.6275 11.6588C33.6518 11.5585 33.67 11.4572 33.6821 11.3555C33.6778 11.2656 33.6839 11.1761 33.7 11.0886C33.7049 10.7597 33.647 10.4311 33.5275 10.1208C33.3846 9.69044 33.1121 9.31476 32.7475 9.04518C32.3829 8.77559 31.9438 8.62528 31.4905 8.61479H28.1149L27.5729 11.1166C27.5253 11.3669 27.3914 11.5926 27.1947 11.7544C26.9979 11.9163 26.7507 12.0041 26.4959 12.0026C26.4162 12.0076 26.3362 11.9977 26.2599 11.9736C25.9746 11.9082 25.7257 11.7345 25.5659 11.4892C25.406 11.2439 25.3476 10.9462 25.4029 10.6586L25.8457 8.61479H18.2938L17.6845 11.1467C17.627 11.3889 17.4891 11.6044 17.2933 11.7581C17.0975 11.9118 16.8554 11.9945 16.6065 11.9927ZM34.2081 19.1056L35.1484 32.9704C35.1964 33.6092 34.9893 34.241 34.5724 34.7274C34.3786 34.9584 34.1369 35.1445 33.8641 35.273C33.5913 35.4014 33.2939 35.4691 32.9924 35.4714H30.3287C30.5511 35.0564 30.7086 34.6061 30.7925 34.1358L34.2081 19.1056Z" fill="#6E7191"/>
</svg>
