<svg width="41" height="41" viewBox="0 0 41 41" fill="none" xmlns="http://www.w3.org/2000/svg">
<g clip-path="url(#clip0_1_4892)">
<path d="M16.6065 11.9927C16.5171 11.9901 16.4282 11.98 16.3405 11.9627C16.1985 11.9279 16.0648 11.8653 15.9471 11.7786C15.8294 11.6919 15.7299 11.5827 15.6546 11.4574C15.5792 11.3321 15.5293 11.1932 15.5079 11.0486C15.4864 10.904 15.4937 10.7565 15.5295 10.6147L17.0645 4.23774C17.0966 4.09345 17.1573 3.95704 17.2429 3.83652C17.3286 3.71601 17.4374 3.61381 17.5631 3.53592C17.6887 3.45804 17.8287 3.40604 17.9747 3.38297C18.1207 3.35991 18.2699 3.36625 18.4134 3.40162C18.5569 3.43699 18.692 3.50068 18.8106 3.58894C18.9292 3.67721 19.0289 3.78827 19.104 3.91562C19.1791 4.04297 19.228 4.18403 19.2478 4.33053C19.2676 4.47703 19.258 4.62601 19.2195 4.76874L17.6845 11.1467C17.627 11.3889 17.4891 11.6044 17.2933 11.7581C17.0975 11.9118 16.8554 11.9945 16.6065 11.9927Z" fill="#6E7191"/>
<path fill-rule="evenodd" clip-rule="evenodd" d="M25.9294 37.845H7.09615C6.74964 37.8451 6.40419 37.8009 6.06881 37.7139C5.73585 37.6271 5.41496 37.499 5.11373 37.3328C4.80648 37.163 4.52144 36.9565 4.26412 36.7178C3.99576 36.4688 3.75723 36.1896 3.55318 35.8857C3.12766 35.2538 2.84549 34.5362 2.72799 33.7834C2.61048 33.0307 2.65985 32.2613 2.87252 31.5298L9.08736 9.61987C9.22206 9.12421 9.43189 8.65217 9.70943 8.21997C9.97314 7.80972 10.3009 7.44362 10.6792 7.13574C11.0472 6.8359 11.462 6.59939 11.9077 6.43579C12.356 6.2708 12.8303 6.18617 13.3081 6.18579H15.9077L14.8295 11.0339C14.8047 11.1652 14.8071 11.3001 14.8364 11.4304C14.8656 11.5608 14.921 11.6837 14.9995 11.7917C15.1356 11.9692 15.3063 12.1178 15.5004 12.2288C15.6946 12.3397 15.9093 12.4106 16.1313 12.4377C16.1465 12.4405 16.1615 12.4444 16.1762 12.449C16.2721 12.4766 16.3701 12.4958 16.4692 12.5068C16.5237 12.5123 16.5785 12.5151 16.6333 12.5149C16.7113 12.5149 16.7722 12.5148 16.8012 12.5078H16.8169C17.165 12.5173 17.505 12.4038 17.7778 12.1873C18.0506 11.9707 18.2391 11.6652 18.309 11.324L19.4516 6.18677H25.7055L24.7055 11.0789C24.6822 11.2105 24.6869 11.3454 24.7182 11.4753C24.7495 11.6053 24.8074 11.7272 24.8881 11.8337C25.0276 12.0086 25.1997 12.1542 25.396 12.2615C25.5922 12.3688 25.8082 12.4357 26.0307 12.4587L26.0737 12.4688C26.1703 12.4949 26.2689 12.5129 26.3686 12.522C26.3896 12.522 26.4106 12.5231 26.4321 12.5243C26.4545 12.5256 26.4774 12.5269 26.5014 12.5269C26.5934 12.5269 26.6696 12.5198 26.7016 12.5168H26.7182C27.0666 12.5197 27.4044 12.4001 27.6733 12.1787C27.9422 11.9573 28.1249 11.6483 28.1889 11.3059L29.2338 6.18579H31.4614C31.9016 6.18566 32.3399 6.2571 32.7573 6.39697C33.1722 6.53546 33.5621 6.73775 33.9145 6.99683C34.2758 7.26157 34.5964 7.57791 34.8657 7.93579C35.1483 8.31132 35.3745 8.72597 35.5376 9.16675C35.7224 9.64323 35.8344 10.1449 35.8696 10.6548C35.8819 10.8314 35.886 11.0083 35.8818 11.185C35.8834 11.2024 35.8846 11.2199 35.8854 11.2374L37.3474 32.7954C37.4384 34.0842 37.0197 35.3572 36.1814 36.3404C35.7922 36.8092 35.305 37.1869 34.754 37.447C34.203 37.707 33.6017 37.843 32.9924 37.8454H25.9354L25.9294 37.845ZM34.2056 19.0692L30.7836 34.1379C30.6834 34.6033 30.5187 35.0521 30.2946 35.4714H32.9924C33.2939 35.4691 33.5913 35.4014 33.8641 35.273C34.1369 35.1445 34.3786 34.9584 34.5724 34.7274C34.9893 34.241 35.1964 33.6092 35.1484 32.9704L34.2056 19.0692ZM11.7768 26.0198C11.912 25.9616 12.0574 25.9318 12.2045 25.9319H24.0161C24.1639 25.9316 24.3099 25.9614 24.4458 26.0198C24.5773 26.0762 24.6973 26.1574 24.7983 26.2588C24.8997 26.36 24.9804 26.4794 25.0376 26.6108C25.0952 26.7461 25.1244 26.8918 25.1235 27.0388C25.1244 27.1859 25.0952 27.3315 25.0376 27.4668C24.9805 27.5985 24.8998 27.7183 24.7983 27.8198C24.6973 27.9212 24.5773 28.0024 24.4458 28.0588C24.3099 28.1172 24.1639 28.1473 24.0161 28.147H12.2045C12.0574 28.1469 11.912 28.1169 11.7768 28.0588C11.645 28.0028 11.5259 27.9216 11.4253 27.8198C11.3233 27.7191 11.2421 27.5991 11.187 27.4668C11.1281 27.3318 11.0977 27.1861 11.0971 27.0388C11.0977 26.8915 11.1282 26.7459 11.187 26.6108C11.2422 26.4789 11.3234 26.3592 11.4253 26.2588C11.5259 26.157 11.645 26.0758 11.7768 26.0198ZM13.2534 19.554C13.3886 19.4958 13.5349 19.4657 13.6821 19.4658H25.4926C25.6405 19.4655 25.7875 19.4956 25.9233 19.554C26.0548 19.6099 26.1739 19.6905 26.2749 19.7917C26.3756 19.8935 26.4572 20.0128 26.5151 20.1438C26.5718 20.2794 26.601 20.4248 26.601 20.5718C26.601 20.7187 26.5718 20.8642 26.5151 20.9998C26.4574 21.1311 26.3758 21.2508 26.2749 21.3528C26.1739 21.4543 26.0549 21.5354 25.9233 21.5918C25.7875 21.6502 25.6405 21.6803 25.4926 21.6799H13.6821C13.5349 21.6799 13.3886 21.6498 13.2534 21.5918C13.1216 21.5358 13.0025 21.4546 12.9018 21.3528C12.7996 21.2522 12.7184 21.1322 12.6635 20.9998C12.6047 20.8647 12.5742 20.7191 12.5737 20.5718C12.5742 20.4245 12.6047 20.2788 12.6635 20.1438C12.7186 20.0117 12.7998 19.892 12.9018 19.7917C13.0026 19.6903 13.1217 19.6097 13.2534 19.554Z" fill="#6E7191"/>
<path d="M26.2599 11.9746C26.3362 11.9987 26.4162 12.0085 26.4959 12.0036C26.7507 12.0051 26.9979 11.9173 27.1947 11.7554C27.3914 11.5935 27.5253 11.3679 27.5729 11.1176L28.9609 4.71062C29.0174 4.42455 28.9589 4.12776 28.7981 3.8845C28.6373 3.64124 28.3872 3.47109 28.1019 3.41087C27.8166 3.35066 27.5191 3.40523 27.2737 3.56277C27.0284 3.72031 26.8549 3.96814 26.7909 4.25262L25.4029 10.6596C25.3476 10.9471 25.406 11.2449 25.5659 11.4902C25.7257 11.7355 25.9746 11.9092 26.2599 11.9746Z" fill="#6E7191"/>
</g>
<defs>
<clipPath id="clip0_1_4892">
<rect width="40.004" height="40.004" fill="white" transform="translate(-0.000244141 0.611572)"/>
</clipPath>
</defs>
</svg>
