<svg width="41" height="41" viewBox="0 0 41 41" fill="none" xmlns="http://www.w3.org/2000/svg">
<g clip-path="url(#clip0_1_549)">
<path d="M7.71279 26.5306C8.50233 26.8361 9.70941 27.0665 10.5624 27.0675C10.5964 27.0705 10.631 27.0718 10.6662 27.0717C10.9857 27.0717 11.2922 26.9447 11.5181 26.7188C11.7441 26.4928 11.871 26.1864 11.871 25.8668C11.871 25.5514 11.7473 25.2486 11.5265 25.0234C11.3056 24.7982 11.0053 24.6686 10.69 24.6624C7.99873 24.4373 6.10878 22.6904 5.77915 20.0539C5.61269 18.7241 5.95474 17.7189 6.82428 16.9807C7.54621 16.3678 8.62469 15.922 10.3213 15.5349C10.9183 11.1639 14.4334 6.05922 19.0716 5.43411C19.4465 5.38383 19.8243 5.3586 20.2025 5.3586C24.1414 5.3586 28.1686 8.15271 29.9962 12.1534C33.4824 13.1579 35.2969 15.2189 35.2434 18.1136C35.1908 20.9408 33.321 23.3557 30.6313 24.3999C30.6223 24.4033 30.6132 24.4068 30.6042 24.4104C30.5739 24.422 30.5438 24.4333 30.5134 24.4446C30.5035 24.4485 30.495 24.4552 30.489 24.4639C30.2952 24.5663 30.1329 24.7196 30.0197 24.9074C29.9066 25.0952 29.8469 25.3103 29.8469 25.5295C29.8469 25.8491 29.9739 26.1555 30.1998 26.3815C30.4257 26.6074 30.7322 26.7344 31.0517 26.7344C31.1215 26.7344 31.191 26.7284 31.2597 26.7165C31.2623 26.7171 31.2649 26.7171 31.2675 26.7165L31.2862 26.7117C31.3459 26.6999 31.4046 26.6835 31.4619 26.6628C32.3012 26.4205 33.0986 26.0512 33.8263 25.5679C34.5912 25.0602 35.2695 24.433 35.8357 23.7103C36.4026 22.9882 36.85 22.1799 37.161 21.3161C37.4797 20.4305 37.6505 19.4984 37.6665 18.5573C37.6838 17.6162 37.546 16.6787 37.2587 15.7824C36.9786 14.9081 36.56 14.0844 36.019 13.3427C35.4787 12.6006 34.8228 11.9499 34.0764 11.4154C33.3112 10.8672 32.461 10.4487 31.5598 10.1768C31.0871 9.08932 30.4561 8.07774 29.6874 7.17489C28.9376 6.29473 28.0647 5.52733 27.0958 4.89638C26.1312 4.26777 25.0815 3.78058 23.9786 3.44968C22.8598 3.11389 21.698 2.94331 20.5299 2.94336C19.964 2.94362 19.3988 2.98351 18.8385 3.06274C17.5274 3.24741 16.2558 3.64769 15.0753 4.24736C13.9239 4.83186 12.8743 5.59815 11.9668 6.51672C11.0585 7.43433 10.3039 8.4923 9.73218 9.64997C9.14567 10.8371 8.75963 12.113 8.58972 13.4262C6.95053 13.8188 5.51258 14.7997 4.54891 16.1826C3.58525 17.5655 3.16294 19.2542 3.36221 20.9279C3.4614 21.7698 3.71614 22.586 4.11339 23.3349C4.30627 23.6982 4.53126 24.0435 4.78574 24.3667C5.03873 24.6877 5.3197 24.9856 5.62534 25.257C5.93096 25.5282 6.25997 25.7719 6.60849 25.9852C6.95956 26.1996 7.32913 26.3821 7.71279 26.5306Z" fill="#6E7191"/>
<path fill-rule="evenodd" clip-rule="evenodd" d="M14.994 31.0969L17.3099 35.1133C18.134 36.5273 19.2617 37.3078 20.4935 37.3078C21.7254 37.3078 22.8531 36.5273 23.6684 35.1133L25.9846 31.0969C26.8 29.683 26.9127 28.321 26.2968 27.2453C25.6809 26.1785 24.4404 25.5886 22.8096 25.5886H21.7019V19.4092H21.6981C21.6739 19.1072 21.5368 18.8255 21.3142 18.6201C21.0916 18.4147 20.7999 18.3007 20.497 18.3007C20.1941 18.3007 19.9023 18.4147 19.6797 18.6201C19.4572 18.8255 19.3201 19.1072 19.2959 19.4092H19.292V25.5886H18.1774C16.5465 25.5886 15.3062 26.1785 14.6903 27.2453C14.4232 27.7063 14.2854 28.2307 14.2912 28.7634C14.2912 29.4921 14.5255 30.2902 14.994 31.0969ZM17.2942 30.529C16.8744 29.7568 16.7917 29.0585 17.0652 28.5549C17.3385 28.0515 17.9554 27.776 18.7949 27.776H22.1909C23.0302 27.776 23.6471 28.0514 23.9204 28.5548C24.0283 28.762 24.083 28.9928 24.0795 29.2264C24.0795 29.6158 23.9521 30.0591 23.6915 30.529L21.9937 33.6374C21.5739 34.4094 21.0399 34.8326 20.4928 34.8326C19.9457 34.8326 19.4116 34.4094 18.992 33.6374L17.2942 30.529Z" fill="#6E7191"/>
</g>
<defs>
<clipPath id="clip0_1_549">
<rect width="40" height="40" fill="white" transform="translate(0.996582 0.00390625)"/>
</clipPath>
</defs>
</svg>
