<svg width="41" height="41" viewBox="0 0 41 41" fill="none" xmlns="http://www.w3.org/2000/svg">
<g clip-path="url(#clip0_1_3355)">
<path fill-rule="evenodd" clip-rule="evenodd" d="M6.77846 34.041C7.63612 34.8573 8.77817 35.3065 9.96214 35.293C10.0671 35.293 10.1985 35.288 10.3235 35.272H10.3948C10.4858 35.267 10.5858 35.262 10.6858 35.262L15.848 34.533C17.106 34.2951 18.2719 33.7076 19.2114 32.8378L32.742 19.3087C33.4913 18.5725 34.1351 17.7362 34.6551 16.8235C35.0944 16.0477 35.3667 15.1887 35.455 14.3015C35.5548 13.2225 35.3739 12.1361 34.9305 11.1474C34.4002 9.99434 33.6585 8.95126 32.743 8.07233C32.0017 7.31314 31.1532 6.6661 30.2253 6.15139C29.2715 5.61949 28.2001 5.33322 27.1081 5.31836C26.0382 5.38096 24.9916 5.6567 24.0299 6.12966C23.0681 6.60262 22.2111 7.26316 21.5083 8.07233L7.97869 21.6027C7.53844 22.0638 7.17385 22.5917 6.89858 23.1667C6.61101 23.7331 6.41188 24.3402 6.30775 24.9668L5.57921 30.13C5.46049 30.8484 5.50837 31.5843 5.71984 32.281C5.92187 32.946 6.28595 33.5506 6.77846 34.041ZM24.6109 8.43416C25.303 8.09377 26.0568 7.8954 26.8268 7.8504V7.85529C27.6083 7.86417 28.3748 8.06631 29.0593 8.44344C29.7272 8.81371 30.3381 9.27911 30.8718 9.82531C31.5303 10.458 32.0645 11.2089 32.4461 12.0385C32.7656 12.7499 32.8952 13.5321 32.8221 14.3086C32.7599 14.9471 32.5641 15.5654 32.2479 16.1236C31.8739 16.7806 31.4109 17.3827 30.8718 17.9127L28.5079 20.2265C26.6345 19.5421 24.9294 18.4459 23.516 17.0119C22.174 15.6504 21.1321 14.0213 20.4529 12.2332L22.7964 9.83239C23.3021 9.25 23.9188 8.77455 24.6109 8.43416ZM18.8714 13.8534L9.4963 23.4577C9.17978 23.7896 8.91721 24.1692 8.71894 24.5828C8.5885 24.9901 8.52086 25.415 8.51874 25.8428C8.45074 26.6248 8.33638 27.9348 8.03338 30.0939C7.94766 30.6107 7.98149 31.1405 8.13299 31.642C8.26178 32.0633 8.26246 32.0639 8.48735 32.26L8.48847 32.2609L8.59394 32.3549C8.82588 32.6169 9.14202 32.7904 9.48751 32.8459C9.51852 32.8459 10.2665 32.782 11.2825 32.677C12.2345 32.577 13.6225 32.4229 14.8255 32.2329C15.695 32.1562 16.5231 31.8276 17.2084 31.287L26.8117 21.8869C24.9984 21.1996 23.3474 20.1245 21.9724 18.7301C20.6054 17.3438 19.5498 15.6801 18.8714 13.8534Z" fill="#6E7191"/>
</g>
<defs>
<clipPath id="clip0_1_3355">
<rect width="40" height="40" fill="white" transform="translate(0.501953 0.307617)"/>
</clipPath>
</defs>
</svg>
