<svg width="41" height="41" viewBox="0 0 41 41" fill="none" xmlns="http://www.w3.org/2000/svg">
<g clip-path="url(#clip0_1_475)">
<path fill-rule="evenodd" clip-rule="evenodd" d="M14.2369 37.2889H14.6734C17.1054 37.2944 19.4802 36.5463 21.4693 35.147C23.4579 33.7547 24.9663 31.7809 25.7886 29.4969C26.1284 28.5076 26.3251 27.4749 26.3726 26.43V26.4158C26.4637 25.9844 26.4631 25.5388 26.3697 25.1079C26.2763 24.6771 26.0922 24.2707 25.8306 23.9158C25.3533 23.3289 24.6778 22.9377 23.9312 22.816L22.2955 22.7278H6.62554L4.9898 22.816C4.24349 22.9386 3.56735 23.3296 3.08941 23.9158C2.82811 24.2708 2.64585 24.6772 2.55328 25.1082C2.46071 25.5391 2.46081 25.9848 2.55328 26.4158V26.4319C2.59985 27.4771 2.79684 28.5099 3.13824 29.4988C3.95976 31.7828 5.46834 33.7562 7.45757 35.147C9.44178 36.544 11.8102 37.2921 14.2369 37.2889ZM7.14703 25.0589L8.40972 24.9988H20.4947L21.7564 25.0589C22.3167 25.1348 22.8343 25.4027 23.2193 25.8169C23.4192 26.0507 23.5606 26.3282 23.6334 26.627C23.7061 26.9258 23.7082 27.2374 23.6382 27.5369V27.5469C23.6027 28.2701 23.4509 28.983 23.189 29.658C22.4468 31.2944 21.2384 32.6757 19.7154 33.6292C18.1924 34.5827 16.4218 35.066 14.6255 35.0188H14.2857C12.4893 35.0652 10.7191 34.5816 9.19585 33.6282C7.67265 32.6748 6.46454 31.294 5.72124 29.658C5.45883 28.9831 5.30669 28.2702 5.27105 27.5469V27.5389C5.20029 27.2395 5.20109 26.9276 5.273 26.6285C5.34492 26.3293 5.486 26.0514 5.68511 25.8169C6.07139 25.4045 6.58733 25.1369 7.14703 25.0589Z" fill="#6E7191"/>
<path fill-rule="evenodd" clip-rule="evenodd" d="M11.5552 16.8155C12.4442 17.184 13.3975 17.3725 14.3599 17.3699C15.3229 17.3724 16.2769 17.184 17.1666 16.8155C18.0562 16.4469 18.8634 15.9056 19.5425 15.2229C20.2248 14.5444 20.7661 13.7372 21.1343 12.8482C21.5025 11.9592 21.6907 11.0062 21.688 10.044C21.6906 9.08134 21.5025 8.12777 21.1343 7.23832C20.7662 6.34886 20.2247 5.54105 19.5425 4.86185C18.8635 4.1791 18.0562 3.63794 17.1666 3.26957C16.2769 2.9012 15.3228 2.71295 14.3599 2.71586C13.3976 2.71287 12.4443 2.90118 11.5552 3.26957C10.6662 3.63795 9.8594 4.17909 9.18121 4.86185C8.49871 5.54086 7.95776 6.34859 7.58941 7.23807C7.22105 8.12755 7.03212 9.08125 7.03472 10.044C7.03207 11.0063 7.22006 11.9594 7.58843 12.8484C7.9568 13.7374 8.49871 14.5445 9.18121 15.2229C9.85948 15.9057 10.6662 16.4469 11.5552 16.8155ZM10.7789 6.45707C11.7287 5.50685 13.0164 4.97212 14.3599 4.97001V4.97294C15.7036 4.97426 16.9914 5.50817 17.9419 6.4578C18.8925 7.40743 19.4286 8.69521 19.4312 10.0389C19.4294 11.3831 18.8945 12.6719 17.9439 13.6223C16.9933 14.5728 15.7042 15.1073 14.3599 15.1089C13.0162 15.1068 11.7278 14.5718 10.7779 13.6214C9.82801 12.6709 9.29386 11.3826 9.29253 10.0389C9.29412 8.6953 9.82902 7.40729 10.7789 6.45707Z" fill="#6E7191"/>
<path fill-rule="evenodd" clip-rule="evenodd" d="M25.9062 31.7669C25.7472 32.0679 25.6793 32.2189 25.7383 32.4009L25.7422 32.3977C25.7972 32.5797 26.1426 32.4917 26.1426 32.4917L26.6211 32.3977L27.415 32.1768L28.1758 31.8767C28.7629 31.6215 29.3227 31.3076 29.8467 30.9397C31.4409 29.8238 32.6505 28.2419 33.3096 26.4109C33.5827 25.6179 33.7404 24.7898 33.7783 23.9519V23.9407C33.8514 23.5955 33.8504 23.2388 33.7754 22.8941C33.7004 22.5493 33.5536 22.2243 33.3437 21.9407C32.9618 21.4709 32.4206 21.1573 31.8232 21.0589C31.8232 21.0589 30.9905 20.9768 29.0605 20.9768C28.1374 20.9753 27.6477 20.9876 27.0629 21.0022C26.5258 21.0157 25.9086 21.0312 24.8017 21.0398C24.6167 21.0162 24.4288 21.049 24.2627 21.1338C24.2105 21.1699 24.1678 21.2186 24.1396 21.2754C24.1115 21.3323 24.0986 21.3954 24.1015 21.4588C24.1098 21.5275 24.1346 21.5933 24.1748 21.6497C24.215 21.7061 24.2687 21.7515 24.331 21.7818C24.4778 21.8597 24.5276 21.866 24.6678 21.8839C24.7417 21.8933 24.8407 21.9059 24.9922 21.9339C25.5679 22.0224 26.1188 22.2313 26.6084 22.5469C26.8933 22.7294 27.1051 23.0056 27.208 23.3279C27.3507 23.6354 27.4194 23.972 27.4082 24.3108C27.4332 25.1518 27.4292 25.9339 27.4082 26.4339V26.4478C27.377 27.5021 27.1932 28.5464 26.8623 29.5479C26.7713 29.8029 26.6779 30.0479 26.5849 30.2769C26.5479 30.3749 26.5106 30.4698 26.4736 30.5598C26.2896 30.9988 26.0982 31.4049 25.9062 31.7669ZM29.6142 24.6209C29.6476 24.0224 29.6411 23.4222 29.5937 22.8247L30.0869 22.8489C30.5361 22.9094 30.9512 23.1239 31.2597 23.4558C31.42 23.6432 31.5334 23.8657 31.5918 24.1053C31.6501 24.3448 31.6517 24.5946 31.5957 24.8347V24.8428C31.5678 25.4224 31.4462 25.9939 31.2363 26.5349C30.7601 27.6817 29.9682 28.6697 28.9531 29.3848C29.0201 29.1328 29.0836 28.8749 29.1416 28.6189C29.4195 27.3134 29.5775 25.9852 29.6142 24.6509V24.6209Z" fill="#6E7191"/>
<path fill-rule="evenodd" clip-rule="evenodd" d="M21.1426 15.1057C21.0076 15.2767 20.8973 15.4208 20.9873 15.6538C21.0578 15.8371 21.1728 15.8872 21.3453 15.9623C21.393 15.9831 21.4451 16.0058 21.5019 16.0337C22.3301 16.4568 23.2478 16.6769 24.1777 16.6758C25.2216 16.6787 26.2471 16.4024 27.1484 15.8758C27.5729 15.6229 27.9642 15.3183 28.3135 14.9688C28.8605 14.4248 29.2936 13.7779 29.5888 13.0652C29.8841 12.3525 30.0353 11.5883 30.0332 10.8169C30.0352 10.0452 29.8841 9.28067 29.5888 8.56765C29.2936 7.85464 28.8604 7.20726 28.3135 6.66287C27.7693 6.11562 27.1222 5.68175 26.4092 5.3865C25.6961 5.09125 24.9309 4.94053 24.1592 4.9429C23.9393 4.94292 23.7195 4.95482 23.501 4.97879H23.4873C23.0445 5.0281 22.6088 5.12601 22.1875 5.27078C21.9375 5.35878 21.8448 5.39982 21.7588 5.63382C21.7248 5.72913 21.7146 5.83133 21.7295 5.93142C21.7443 6.03152 21.7836 6.12642 21.8437 6.20779C22.4381 7.40229 22.752 8.71666 22.7617 10.0508C22.7604 11.0746 22.5856 12.091 22.2461 13.0569C22.0767 13.5403 21.8595 14.0053 21.5967 14.4449C21.4595 14.6746 21.3078 14.8953 21.1426 15.1057ZM24.5361 10.1018C24.5401 8.97264 24.4 7.84765 24.1191 6.75393L24.1562 6.75271C25.2338 6.75377 26.2672 7.18247 27.0293 7.94436C27.7914 8.70625 28.2203 9.73932 28.2217 10.8169C28.2203 11.8945 27.7914 12.9276 27.0293 13.6895C26.2672 14.4514 25.2338 14.8798 24.1562 14.8809C23.9891 14.8811 23.8221 14.8711 23.6562 14.8509C23.95 14.1198 24.1694 13.3608 24.3105 12.5857C24.4622 11.7665 24.5375 10.935 24.5361 10.1018Z" fill="#6E7191"/>
</g>
<defs>
<clipPath id="clip0_1_475">
<rect width="39.999" height="39.999" fill="white" transform="translate(0.997559 0.00390625)"/>
</clipPath>
</defs>
</svg>
