<svg width="40" height="41" viewBox="0 0 40 41" fill="none" xmlns="http://www.w3.org/2000/svg">
<g clip-path="url(#clip0_1_4650)">
<path fill-rule="evenodd" clip-rule="evenodd" d="M27.6831 9.61682V9.71265H28.0856C31.5906 9.71265 34.0026 10.5126 35.4386 12.1056C36.0968 12.9627 36.5666 13.9491 36.8173 15.0002C37.068 16.0514 37.094 17.1437 36.8936 18.2056L35.6846 31.1196C35.3266 34.5126 33.9357 37.9916 26.4677 37.9916H13.5347C6.0657 37.9916 4.67568 34.5126 4.31968 31.1376L3.11063 18.1846C2.911 17.126 2.93745 16.0372 3.18821 14.9895C3.43896 13.9418 3.90836 12.9591 4.56565 12.1056C6.02065 10.4886 8.42661 9.71265 11.9186 9.71265H12.3181V9.61682C12.3181 6.77182 12.3182 3.22778 18.7072 3.22778H21.2941C27.6831 3.22778 27.6831 6.77182 27.6831 9.61682ZM26.4676 12.1257L26.4618 12.1256H11.9176C9.18264 12.1256 7.30666 12.6556 6.35666 13.7256C5.92184 14.328 5.62165 15.017 5.47654 15.7456C5.33143 16.4743 5.34479 17.2256 5.51566 17.9486L5.56447 18.4712C8.57069 20.5177 11.9777 21.8909 15.5525 22.5034V22.2297C15.5525 19.9537 16.1085 19.3977 18.3845 19.3977H21.6174C23.8934 19.3977 24.4495 19.9537 24.4495 22.2297V22.4575C28.0358 21.8074 31.4457 20.3985 34.4488 18.3218L34.4827 17.9617C34.6486 17.2362 34.6594 16.4837 34.5144 15.7538C34.3695 15.0238 34.0721 14.3327 33.6416 13.7256C32.6846 12.6586 30.8096 12.1256 28.0806 12.1256H26.4733L26.4676 12.1257ZM15.5866 24.9642C12.1494 24.4354 8.84576 23.2627 5.84832 21.5108L6.72465 30.8947C7.00265 33.4487 7.6946 35.5696 13.5336 35.5696H26.4666C32.2866 35.5696 32.9976 33.4486 33.2666 30.8816L34.1594 21.3962C31.1625 23.1689 27.8589 24.3733 24.4152 24.9437C24.2753 26.5132 23.5677 28.2916 20.0015 28.2916C16.4294 28.2916 15.7253 26.5157 15.5866 24.9642ZM25.2521 9.71265H14.7491V9.61682C14.7491 6.73882 14.7492 5.65881 18.7072 5.65881H21.2941C25.2521 5.65881 25.2521 6.73982 25.2521 9.61682V9.71265ZM17.9845 23.8877V21.8247H22.0195V23.8746C22.0195 25.6076 22.0185 25.8597 20.0015 25.8597C17.9845 25.8597 17.9845 25.5556 17.9845 23.8877Z" fill="#6E7191"/>
</g>
<defs>
<clipPath id="clip0_1_4650">
<rect width="40" height="40" fill="white" transform="translate(-0.000244141 0.609619)"/>
</clipPath>
</defs>
</svg>
