<svg width="41" height="41" viewBox="0 0 41 41" fill="none" xmlns="http://www.w3.org/2000/svg">
<g clip-path="url(#clip0_1_3621)">
<path d="M24.5961 23.9467C24.4319 23.9472 24.2693 23.915 24.1177 23.852C23.9661 23.789 23.8286 23.6964 23.7132 23.5797L21.0465 20.9131L18.3129 23.6467C18.1984 23.7647 18.0611 23.8581 17.9093 23.9212C17.7575 23.9843 17.5944 24.0158 17.43 24.0137C17.2658 24.0142 17.1032 23.982 16.9516 23.919C16.8 23.856 16.6625 23.7635 16.5471 23.6467C16.3149 23.4113 16.1847 23.094 16.1847 22.7633C16.1847 22.4327 16.3149 22.1153 16.5471 21.8799L19.2802 19.1468L16.63 16.4966C16.4036 16.2609 16.2785 15.9457 16.2818 15.6189C16.2851 15.292 16.4164 14.9794 16.6475 14.7483C16.8787 14.5171 17.1912 14.3858 17.5181 14.3826C17.845 14.3793 18.1601 14.5043 18.3958 14.7308L21.0462 17.3808L23.6292 14.7978C23.8634 14.5635 24.181 14.4319 24.5123 14.4318C24.8435 14.4317 25.1612 14.5632 25.3955 14.7973C25.6298 15.0315 25.7615 15.3491 25.7616 15.6804C25.7617 16.0116 25.6302 16.3293 25.396 16.5636L22.8126 19.147L25.4789 21.8129C25.7112 22.0483 25.8414 22.3657 25.8414 22.6963C25.8414 23.027 25.7112 23.3443 25.4789 23.5797C25.2414 23.8089 24.9261 23.94 24.5961 23.9467Z" fill="#6E7191"/>
<path fill-rule="evenodd" clip-rule="evenodd" d="M21.0136 38.2288C19.2102 38.2497 17.4471 37.6953 15.9802 36.646L8.8141 31.2967C7.81335 30.4708 6.99571 29.4455 6.41331 28.286C5.83091 27.1266 5.49653 25.8584 5.43152 24.5626V12.1641C5.48306 10.8285 5.91511 9.5355 6.67682 8.43723C7.43852 7.33896 8.49816 6.48118 9.73098 5.96488L18.0469 2.84827C19.965 2.23173 22.0281 2.23173 23.9462 2.84827L32.2622 5.96488C33.495 6.48118 34.5546 7.33896 35.3163 8.43723C36.078 9.5355 36.5101 10.8285 36.5616 12.1641V24.5466C36.4986 25.843 36.1651 27.1119 35.5825 28.2718C35 29.4317 34.1813 30.457 33.179 31.2817L26.0129 36.631C24.566 37.6959 22.8099 38.2572 21.0136 38.2288ZM18.9298 5.19798L10.6149 8.31359C9.86126 8.6564 9.21503 9.19764 8.74532 9.87941C8.2756 10.5612 8.00007 11.3578 7.9482 12.1841V24.5626C8.01126 25.4686 8.25282 26.3532 8.65899 27.1655C9.06516 27.9779 9.62792 28.7019 10.3149 29.296L17.481 34.6453C18.5291 35.3462 19.7617 35.7203 21.0226 35.7203C22.2835 35.7203 23.516 35.3462 24.5641 34.6453L31.7302 29.296C32.4186 28.7031 32.9823 27.9794 33.3886 27.1668C33.7949 26.3542 34.0357 25.469 34.0969 24.5626V12.1641C34.0396 11.3396 33.7617 10.5456 33.2922 9.86534C32.8227 9.1851 32.1789 8.64361 31.4283 8.29759L23.1133 5.18498C21.7474 4.78103 20.2932 4.78555 18.9298 5.19798Z" fill="#6E7191"/>
</g>
<defs>
<clipPath id="clip0_1_3621">
<rect width="40" height="40" fill="white" transform="translate(0.998047 0.307617)"/>
</clipPath>
</defs>
</svg>
