<svg width="41" height="40" viewBox="0 0 41 40" fill="none" xmlns="http://www.w3.org/2000/svg">
<g clip-path="url(#clip0_1_591)">
<path d="M27.7103 4.00195H14.2956C8.46877 4.00195 4.99463 7.47444 4.99463 13.2974V26.69C4.99463 32.5306 8.46877 36.002 14.2956 36.002H27.6947C33.5204 36.002 36.9946 32.5306 36.9946 26.7066V13.2984C37.0112 7.47441 33.5371 4.00195 27.7103 4.00195ZM14.0713 9.60183C14.0713 9.28352 14.1978 8.9782 14.423 8.75312C14.6482 8.52804 14.9536 8.40165 15.2721 8.40165C15.5906 8.40165 15.896 8.52804 16.1212 8.75312C16.3464 8.9782 16.4729 9.28352 16.4729 9.60183V15.8387C16.4729 16.157 16.3464 16.4623 16.1212 16.6873C15.896 16.9124 15.5906 17.0389 15.2721 17.0389C14.9536 17.0389 14.6482 16.9124 14.423 16.6873C14.1978 16.4623 14.0713 16.157 14.0713 15.8387V9.60183ZM16.4729 27.2992V30.4065C16.4729 30.7249 16.3464 31.0301 16.1212 31.2552C15.896 31.4803 15.5906 31.6067 15.2721 31.6067C14.9536 31.6067 14.6482 31.4803 14.423 31.2552C14.1978 31.0301 14.0713 30.7249 14.0713 30.4065V27.2992C13.0579 27.0098 12.1833 26.3639 11.6086 25.4808C11.034 24.5976 10.798 23.5366 10.9442 22.4933C11.0905 21.45 11.609 20.4947 12.4043 19.8034C13.1996 19.1121 14.2181 18.7313 15.2721 18.7313C16.3261 18.7313 17.3446 19.1121 18.1399 19.8034C18.9352 20.4947 19.4538 21.45 19.6 22.4933C19.7462 23.5366 19.5103 24.5976 18.9356 25.4808C18.361 26.3639 17.4863 27.0098 16.4729 27.2992ZM27.9356 30.4065C27.9356 30.7249 27.8091 31.0301 27.5839 31.2552C27.3587 31.4803 27.0533 31.6067 26.7348 31.6067C26.4164 31.6067 26.1109 31.4803 25.8858 31.2552C25.6606 31.0301 25.5341 30.7249 25.5341 30.4065V24.1619C25.5341 23.8436 25.6606 23.5383 25.8858 23.3133C26.1109 23.0882 26.4164 22.9617 26.7348 22.9617C27.0533 22.9617 27.3587 23.0882 27.5839 23.3133C27.8091 23.5383 27.9356 23.8436 27.9356 24.1619V30.4065ZM26.7354 21.2388C25.6811 21.2444 24.6606 20.8676 23.8631 20.1784C23.0656 19.4891 22.5453 18.5341 22.3988 17.4905C22.2522 16.447 22.4893 15.3857 23.066 14.5036C23.6428 13.6215 24.5201 12.9784 25.5352 12.6936V9.60183C25.5352 9.28352 25.6617 8.9782 25.8869 8.75312C26.1121 8.52804 26.4175 8.40165 26.736 8.40165C27.0544 8.40165 27.3598 8.52804 27.585 8.75312C27.8102 8.9782 27.9367 9.28352 27.9367 9.60183V12.7092C28.9464 12.9968 29.8179 13.6398 30.3904 14.5194C30.9629 15.3991 31.1977 16.456 31.0514 17.4952C30.9051 18.5344 30.3877 19.4856 29.5947 20.1732C28.8016 20.8609 27.7864 21.2386 26.7365 21.2366L26.7354 21.2388Z" fill="#6E7191"/>
</g>
<defs>
<clipPath id="clip0_1_591">
<rect width="39.998" height="39.998" fill="white" transform="translate(0.994629 0.00195312)"/>
</clipPath>
</defs>
</svg>
