<svg width="41" height="41" viewBox="0 0 41 41" fill="none" xmlns="http://www.w3.org/2000/svg">
<g clip-path="url(#clip0_1_587)">
<path d="M16.5298 36.0039C8.44749 36.0039 4.99463 32.55 4.99463 24.4683V15.5395C4.99463 7.45783 8.44749 4.00391 16.5298 4.00391H25.4595C33.5418 4.00391 36.9946 7.45783 36.9946 15.5395V24.4683C36.9946 32.55 33.5418 36.0039 25.4595 36.0039H16.5298ZM7.22679 15.5406V24.4694C7.22679 31.3293 9.66821 33.7716 16.5298 33.7716H25.4595C32.32 33.7716 34.7635 31.3304 34.7635 24.4694V15.5406C34.7635 8.68062 32.3221 6.23829 25.4595 6.23829H16.5298C9.66821 6.23829 7.22679 8.67953 7.22679 15.5406ZM25.5361 30.4649C25.3285 30.2552 25.2114 29.9725 25.2096 29.6774V23.8749C25.2111 23.5799 25.3282 23.297 25.5361 23.0875C25.7459 22.8795 26.0286 22.7624 26.3241 22.7611C26.6191 22.763 26.9013 22.8801 27.111 23.0875C27.3195 23.2966 27.4377 23.5797 27.4385 23.8749V29.6774C27.4373 29.9726 27.3191 30.2555 27.111 30.4649C26.9013 30.6723 26.6191 30.7896 26.3241 30.7916C26.0286 30.7902 25.7459 30.6729 25.5361 30.4649ZM14.8804 30.4649C14.6729 30.2551 14.5559 29.9724 14.5539 29.6774V27.7645C13.9643 27.628 13.4035 27.3868 12.8992 27.0523C12.0807 26.5031 11.4429 25.7248 11.0647 24.8147C10.6876 23.9027 10.5876 22.8994 10.7787 21.9311C10.9719 20.9642 11.448 20.0761 12.1452 19.3788C12.8429 18.6819 13.7313 18.2075 14.6985 18.0156C15.666 17.8246 16.6678 17.9235 17.5794 18.2997C18.4902 18.6774 19.2696 19.3162 19.8179 20.1356C20.3654 20.9553 20.6571 21.9189 20.657 22.9046C20.6575 23.5596 20.5292 24.2083 20.2784 24.8134C20.0276 25.4184 19.6596 25.9679 19.1958 26.4305C18.5345 27.0924 17.7001 27.5547 16.7882 27.7645V29.6774C16.7883 29.8244 16.759 29.97 16.7021 30.1054C16.6475 30.2412 16.5659 30.3643 16.4617 30.467C16.3578 30.5708 16.2346 30.6532 16.0991 30.7097C15.9633 30.7667 15.8167 30.7958 15.6694 30.7948C15.373 30.7933 15.0897 30.6747 14.8804 30.4649ZM14.136 20.6181C13.6831 20.92 13.3304 21.3491 13.1214 21.8516C12.9125 22.3554 12.8581 22.9099 12.9641 23.4448C13.072 23.9781 13.3334 24.4679 13.717 24.8538C14.1027 25.2377 14.5933 25.499 15.1271 25.605C15.6615 25.7117 16.2155 25.6577 16.7191 25.4495C17.2217 25.2404 17.6522 24.8871 17.9548 24.4345C18.2575 23.9813 18.4187 23.4485 18.4184 22.9036C18.4188 22.1739 18.1291 21.4741 17.6134 20.9579C17.0964 20.4419 16.3957 20.1522 15.6652 20.1521C15.1224 20.1528 14.5926 20.315 14.1423 20.6181H14.136ZM23.5527 21.2484C22.7326 20.7001 22.0938 19.9212 21.7162 19.0098C21.3389 18.0989 21.2395 17.0966 21.4322 16.1297C21.6244 15.1628 22.0988 14.2747 22.7956 13.5773C23.4575 12.9157 24.2921 12.4533 25.2043 12.2434V10.3304C25.2064 10.0364 25.3245 9.75495 25.5318 9.54641C25.7416 9.3384 26.0243 9.22104 26.3198 9.21969C26.6148 9.22167 26.897 9.33896 27.1068 9.54641C27.3146 9.75455 27.4329 10.0362 27.4343 10.3304V12.2434C27.705 12.3057 27.9697 12.3904 28.2266 12.4962C29.1373 12.8744 29.9158 13.5128 30.4651 14.3318C31.0124 15.1528 31.3047 16.1176 31.3042 17.1043C31.3042 18.4251 30.7803 19.6918 29.8472 20.6266C29.3842 21.09 28.8339 21.4576 28.2287 21.7083C27.6235 21.9591 26.9749 22.0881 26.3198 22.088C25.3351 22.0868 24.3726 21.7944 23.5538 21.2474L23.5527 21.2484ZM24.7916 14.8132C24.3403 15.1164 23.9881 15.5454 23.7782 16.047C23.5716 16.5514 23.518 17.1051 23.6229 17.6399C23.729 18.1732 23.9894 18.6632 24.3727 19.0489C24.7598 19.4342 25.2522 19.6965 25.7881 19.8025C26.322 19.9083 26.8752 19.8533 27.3779 19.6446C27.8826 19.4379 28.3144 19.0842 28.6158 18.6296C28.9168 18.1782 29.0776 17.6479 29.0784 17.1053C29.0787 16.7438 29.0072 16.3856 28.8689 16.0515C28.7306 15.7174 28.528 15.4139 28.2723 15.1583C27.7563 14.6418 27.0563 14.3513 26.3262 14.3504C25.7808 14.35 25.2472 14.5107 24.7927 14.8122L24.7916 14.8132ZM14.8825 16.9224C14.6756 16.7123 14.5587 16.4299 14.556 16.135V10.3304C14.5583 10.0364 14.6753 9.75501 14.8825 9.54641C15.0915 9.33853 15.3736 9.22114 15.6684 9.21969C15.9644 9.22151 16.2486 9.33876 16.4596 9.54641C16.6671 9.75481 16.7842 10.0363 16.7861 10.3304V16.135C16.7863 16.2823 16.757 16.4282 16.6999 16.5641C16.6454 16.6998 16.5638 16.823 16.4596 16.9256C16.3555 17.0291 16.2323 17.1117 16.097 17.1686C15.9605 17.223 15.8142 17.2507 15.6673 17.2502C15.5209 17.25 15.376 17.2208 15.2409 17.1643C15.1058 17.1079 14.9835 17.0254 14.8804 16.9214L14.8825 16.9224Z" fill="#6E7191"/>
</g>
<defs>
<clipPath id="clip0_1_587">
<rect width="39.998" height="39.998" fill="white" transform="translate(0.994629 0.00390625)"/>
</clipPath>
</defs>
</svg>
