<svg width="42" height="41" viewBox="0 0 42 41" fill="none" xmlns="http://www.w3.org/2000/svg">
<g clip-path="url(#clip0_1_5055)">
<path d="M30.0274 37.2094H11.9786C10.5257 37.1853 9.12621 36.6601 8.01569 35.7231C6.90517 34.786 6.15201 33.4949 5.88386 32.0668L3.74128 19.227C3.60567 18.1464 3.73709 17.0473 4.12507 16.0297C4.51304 15.0121 5.14529 14.1071 5.96589 13.391L17.1339 4.44572C18.2291 3.5882 19.5838 3.12887 20.9747 3.14494C22.3858 3.12963 23.7609 3.59325 24.8751 4.45939L36.043 13.3871C36.8535 14.1111 37.4783 15.0181 37.8653 16.0336C38.2523 17.0491 38.3897 18.1433 38.2667 19.2231L36.1212 32.0492C35.8393 33.4721 35.0826 34.7565 33.9757 35.6938C32.8687 36.6311 31.4772 37.166 30.0274 37.2094ZM21.001 21.4086C20.6814 21.4135 20.3759 21.5434 20.1505 21.7699C19.925 21.9965 19.7974 22.3019 19.794 22.6215V29.8617C19.7937 30.1823 19.9203 30.4902 20.1466 30.7172C20.3729 30.9443 20.6805 31.0719 21.001 31.0727C21.3221 31.0724 21.6304 30.9443 21.8575 30.7172C22.0845 30.4902 22.2117 30.1828 22.212 29.8617V22.6215C22.2086 22.301 22.0799 21.995 21.8536 21.768C21.6273 21.541 21.3215 21.4111 21.001 21.4067V21.4086Z" fill="#6E7191"/>
</g>
<defs>
<clipPath id="clip0_1_5055">
<rect width="40.004" height="40.004" fill="white" transform="translate(0.998047 0.189453)"/>
</clipPath>
</defs>
</svg>
