<svg width="40" height="41" viewBox="0 0 40 41" fill="none" xmlns="http://www.w3.org/2000/svg">
<g clip-path="url(#clip0_1_5105)">
<path fill-rule="evenodd" clip-rule="evenodd" d="M8.91519 33.6595C12.0398 36.2176 15.955 37.6127 19.9932 37.607C22.28 37.6064 24.5443 37.1551 26.6565 36.2788C28.7688 35.4025 30.6876 34.1184 32.3032 32.5C35.1595 29.6454 36.9372 25.8885 37.3334 21.8697C37.7296 17.851 36.7196 13.8193 34.4756 10.462C32.2317 7.10461 28.8927 4.6295 25.028 3.4586C21.1633 2.2877 17.0121 2.49351 13.2821 4.04094C9.55218 5.58836 6.47448 8.3816 4.57364 11.9444C2.67279 15.5073 2.06647 19.6191 2.85818 23.579C3.64989 27.5388 5.79055 31.1015 8.91519 33.6595ZM16.3521 5.63935C17.5351 5.34486 18.7574 5.19366 19.9932 5.19499C21.2352 5.19656 22.4612 5.35201 23.6457 5.65076C23.6527 5.75983 23.6748 5.86764 23.7115 5.97108C24.236 7.56081 24.6701 9.17233 25.0138 10.7981L24.959 10.707C24.959 10.707 25.2003 11.4658 24.9053 11.7778C24.7987 11.8905 24.6189 11.9425 24.4327 11.9628C21.4868 11.6859 18.5213 11.6849 15.5753 11.9598C15.3701 11.9439 15.1648 11.8935 15.0479 11.7698C14.9252 11.6401 14.8951 11.4332 14.9018 11.2357C15.2582 9.46711 15.7212 7.7146 16.2909 5.98779C16.3277 5.87474 16.3482 5.75743 16.3521 5.63935ZM24.2846 14.3936C24.6326 14.4971 24.9667 14.647 25.2775 14.8401C25.5384 15.0599 25.6947 15.4649 25.7883 15.8588C26.062 18.7206 26.0629 21.6022 25.791 24.4642C25.6989 24.8637 25.5425 25.2778 25.2775 25.5011C24.9175 25.7248 24.5262 25.8904 24.1182 25.9933C21.3473 26.2459 18.5589 26.2426 15.7885 25.9835C15.3939 25.88 15.0156 25.7178 14.6665 25.5011C14.4722 25.3377 14.3362 25.0715 14.2412 24.7836C13.929 21.7155 13.9306 18.6233 14.246 15.5555C14.3416 15.2685 14.4778 15.0033 14.6715 14.8401C14.9788 14.6493 15.3089 14.5007 15.6527 14.3973C18.5233 14.1214 21.4138 14.1201 24.2846 14.3936ZM34.1941 16.4742C32.4983 15.9142 30.7777 15.4572 29.0413 15.1031C28.8132 15.0801 28.5472 15.0942 28.3919 15.241C28.2902 15.3371 28.2381 15.4928 28.2139 15.659C28.5004 18.6675 28.499 21.6968 28.2096 24.7051C28.2352 24.8626 28.2871 25.0085 28.3841 25.1002C28.6961 25.3952 29.4551 25.1542 29.4551 25.1542L29.3788 25.2001C31.0069 24.8558 32.6206 24.4207 34.2125 23.8949C34.3186 23.8581 34.4284 23.8367 34.5388 23.8305C34.9503 22.1791 35.081 20.4576 34.9126 18.7386C34.8396 17.9931 34.7112 17.258 34.5302 16.5389C34.4156 16.5354 34.3021 16.5136 34.1941 16.4742ZM29.2955 12.6752C30.7123 12.9583 32.1194 13.3068 33.5123 13.7205C32.7848 12.2013 31.8014 10.8042 30.5932 9.59495C29.3827 8.3839 27.9866 7.40093 26.4718 6.67375C26.906 8.13928 27.268 9.62057 27.5576 11.1124C27.6577 11.4622 27.8116 11.7951 28.0146 12.0991C28.4045 12.3963 28.8624 12.5913 29.3467 12.667L29.2955 12.6752ZM11.579 25.149C11.461 25.2606 11.2791 25.2955 11.0985 25.2958C9.31284 24.9376 7.54353 24.4706 5.80047 23.8949C5.67594 23.8528 5.54588 23.831 5.41523 23.8299C4.88286 21.693 4.82362 19.4499 5.26114 17.2608C5.30966 17.018 5.36409 16.777 5.42429 16.5378C5.54593 16.5352 5.66662 16.5138 5.78215 16.4742C7.47959 15.9137 9.20192 15.4563 10.94 15.1021C11.1657 15.0806 11.426 15.0964 11.579 15.241C11.7255 15.3796 11.7693 15.642 11.7744 15.8815C11.5152 18.7456 11.5153 21.6275 11.7748 24.4915C11.7713 24.7354 11.7291 25.0071 11.579 25.149ZM13.4909 6.81482C13.109 8.1235 12.7844 9.44446 12.517 10.774L12.5049 10.6992C12.4253 11.1999 12.2375 11.6774 11.9561 12.0991C11.5658 12.3962 11.1076 12.5913 10.623 12.667L10.6774 12.6757C9.25303 12.9604 7.8385 13.3111 6.43842 13.7278C7.38217 11.7544 8.75268 9.99707 10.4683 8.59196C11.3319 7.88462 12.2658 7.2806 13.251 6.7867C13.3292 6.80392 13.4096 6.81344 13.4909 6.81482ZM6.59009 26.9841C6.61356 26.8914 6.62586 26.796 6.62652 26.6999C8.12886 27.1404 9.65037 27.5056 11.1854 27.7946C11.4609 27.8959 11.7208 28.038 11.9561 28.217C12.2375 28.6387 12.4253 29.1162 12.5049 29.6169L12.5122 29.5718C12.7805 30.9094 13.1067 32.2383 13.4909 33.5548C13.3936 33.5559 13.297 33.5689 13.2033 33.5932C10.4561 32.2036 8.19376 29.9975 6.73623 27.2652C6.68649 27.1719 6.63777 27.0782 6.59009 26.9841ZM16.2909 34.3978C15.7222 32.6738 15.2597 30.9242 14.9035 29.1585C14.8916 28.9499 14.9173 28.7242 15.0479 28.5862C15.1511 28.477 15.3232 28.4249 15.5032 28.4033C16.9951 28.5438 18.4946 28.6136 19.9965 28.6119C21.5048 28.614 23.0107 28.5443 24.509 28.4035C24.667 28.429 24.8134 28.4809 24.9053 28.5781C25.2003 28.8901 24.959 29.6492 24.959 29.6492L25.0125 29.5602C24.669 31.1839 24.2353 32.7934 23.7115 34.3811C23.6665 34.5009 23.6427 34.6274 23.6408 34.7549C21.2418 35.3589 18.7383 35.3585 16.3527 34.7647C16.3504 34.6404 16.3297 34.5167 16.2909 34.3978ZM26.4421 33.745C26.8905 32.244 27.263 30.7262 27.5595 29.1974C27.6596 28.85 27.8128 28.5192 28.0146 28.217C28.2352 28.0489 28.4776 27.9134 28.7342 27.8137C30.3004 27.5228 31.8528 27.1529 33.3854 26.7049C33.3861 26.7719 33.3925 26.8385 33.4044 26.904C33.1225 27.4687 32.8041 28.0175 32.45 28.5468C30.943 30.7992 28.8629 32.5894 26.4421 33.745Z" fill="#6E7191"/>
</g>
<defs>
<clipPath id="clip0_1_5105">
<rect width="39.998" height="39.998" fill="white" transform="translate(0.00195312 0.185547)"/>
</clipPath>
</defs>
</svg>
