<svg width="41" height="41" viewBox="0 0 41 41" fill="none" xmlns="http://www.w3.org/2000/svg">
<g clip-path="url(#clip0_1_7721)">
<path d="M11.3051 30.3253C9.19378 30.0183 7.25608 28.9832 5.82699 27.399C2.43962 23.6369 2.74362 17.8344 6.50579 14.4471L11.958 9.53799C15.72 6.15047 21.5224 6.45461 24.91 10.2168C28.2975 13.979 28.004 19.7714 24.2421 23.159L21.516 25.6135C21.2982 25.8068 21.0131 25.9067 20.7222 25.8914C20.4314 25.8762 20.1582 25.7471 19.9618 25.5321C19.7685 25.3142 19.6687 25.0291 19.6839 24.7383C19.6992 24.4474 19.8283 24.1743 20.0433 23.9778L22.7694 21.5231C25.6264 18.9506 25.8576 14.5367 23.2851 11.6797C20.7125 8.82266 16.2986 8.59129 13.4416 11.164L7.98936 16.0731C5.1324 18.6456 4.90102 23.0597 7.47369 25.9167C8.55929 27.1161 10.0274 27.9018 11.6275 28.1397C11.9165 28.1844 12.1761 28.3411 12.3505 28.5758C12.5248 28.8104 12.5998 29.1043 12.5592 29.3938C12.5186 29.6561 12.3856 29.8953 12.1842 30.0681C11.9827 30.2409 11.7261 30.336 11.4607 30.3362C11.4087 30.3361 11.3567 30.3325 11.3051 30.3253Z" fill="#6E7191"/>
<path d="M17.0723 31.0952C13.6849 27.3332 13.9889 21.5305 17.7511 18.1432L20.4772 15.6887C20.695 15.4953 20.9801 15.3955 21.271 15.4107C21.5618 15.426 21.835 15.5551 22.0314 15.7701C22.2247 15.9879 22.3245 16.2731 22.3093 16.5639C22.2941 16.8547 22.165 17.1279 21.9499 17.3243L19.2238 19.779C16.3668 22.3513 16.1355 26.7655 18.7079 29.6225C21.2804 32.4794 25.6946 32.7108 28.5515 30.1384L34.0038 25.2291C36.8608 22.6568 37.092 18.2426 34.5195 15.3856C33.434 14.1861 31.9659 13.4004 30.3658 13.1626C30.0769 13.1179 29.8172 12.9613 29.6428 12.7266C29.4684 12.4919 29.3934 12.1981 29.4339 11.9085C29.4544 11.7647 29.5032 11.6264 29.5775 11.5015C29.6518 11.3767 29.7501 11.2678 29.8667 11.1812C29.9833 11.0945 30.116 11.0319 30.2569 10.9968C30.3979 10.9617 30.5445 10.955 30.6881 10.9769C32.7994 11.2839 34.7371 12.3189 36.1662 13.9031C39.5426 17.6749 39.2384 23.4773 35.4765 26.8649L30.0242 31.774C28.3425 33.292 26.1567 34.1311 23.8912 34.1284C22.6053 34.1305 21.3333 33.8614 20.1584 33.3388C18.9834 32.8161 17.9319 32.0516 17.0723 31.0952Z" fill="#6E7191"/>
</g>
<defs>
<clipPath id="clip0_1_7721">
<rect width="39.998" height="39.998" fill="white" transform="translate(0.996094 0.650391)"/>
</clipPath>
</defs>
</svg>
