<svg width="41" height="41" viewBox="0 0 41 41" fill="none" xmlns="http://www.w3.org/2000/svg">
<g clip-path="url(#clip0_1_5151)">
<path fill-rule="evenodd" clip-rule="evenodd" d="M25.1554 13.7334C25.8365 14.7526 26.2 15.951 26.2 17.1768C26.2 17.9908 26.0397 18.7968 25.7282 19.5487C25.4167 20.3007 24.9602 20.984 24.3846 21.5595C23.8091 22.1351 23.1258 22.5916 22.3738 22.9031C21.6218 23.2146 20.8159 23.3749 20.0019 23.3749C18.776 23.3749 17.5777 23.0114 16.5584 22.3303C15.5392 21.6493 14.7448 20.6813 14.2756 19.5487C13.8065 18.4162 13.6838 17.17 13.9229 15.9677C14.1621 14.7653 14.7524 13.661 15.6192 12.7941C16.486 11.9273 17.5904 11.337 18.7927 11.0979C19.995 10.8587 21.2413 10.9814 22.3738 11.4506C23.5064 11.9197 24.4744 12.7141 25.1554 13.7334ZM16.9098 15.1108C16.5012 15.7223 16.2831 16.4413 16.2831 17.1768C16.2831 18.1631 16.6749 19.109 17.3723 19.8065C17.7176 20.1518 18.1276 20.4257 18.5788 20.6126C19.03 20.7995 19.5135 20.8957 20.0019 20.8957C20.7374 20.8957 21.4564 20.6776 22.068 20.2689C22.6795 19.8603 23.1562 19.2795 23.4377 18.6C23.7191 17.9204 23.7928 17.1727 23.6493 16.4513C23.5058 15.7299 23.1516 15.0673 22.6315 14.5472C22.1114 14.0271 21.4488 13.6729 20.7274 13.5294C20.006 13.386 19.2583 13.4596 18.5788 13.7411C17.8992 14.0225 17.3184 14.4992 16.9098 15.1108Z" fill="#6E7191"/>
<path fill-rule="evenodd" clip-rule="evenodd" d="M20.7705 37.9775C20.5524 38.1525 20.2816 38.2486 20.002 38.2503C19.7224 38.2486 19.4515 38.1525 19.2334 37.9775C19.2122 37.9585 19.1667 37.9201 19.0992 37.863C17.6697 36.6543 6.36621 27.0964 6.36621 17.1768C6.36621 9.64598 12.4711 3.54102 20.002 3.54102C27.5328 3.54102 33.6378 9.64598 33.6378 17.1768C33.6378 27.0961 22.3349 36.6537 20.9049 37.8629C20.8373 37.92 20.7918 37.9585 20.7705 37.9775ZM20.0021 6.02015C13.8404 6.02015 8.84544 11.0152 8.84544 17.1768C8.84544 24.9864 17.3616 33.0563 20.0021 35.3867C22.6425 33.0563 31.1587 24.9864 31.1587 17.1768C31.1587 11.0151 26.1638 6.02015 20.0021 6.02015Z" fill="#6E7191"/>
</g>
<defs>
<clipPath id="clip0_1_5151">
<rect width="40" height="40" fill="white" transform="translate(0.00195312 0.703125)"/>
</clipPath>
</defs>
</svg>
