<svg width="41" height="41" viewBox="0 0 41 41" fill="none" xmlns="http://www.w3.org/2000/svg">
<g clip-path="url(#clip0_1_355)">
<path d="M16.3775 37.3448L25.7643 37.3447C26.313 37.3447 26.846 37.33 27.3484 37.3007C27.8546 37.2714 28.3486 37.2263 28.8166 37.1669C29.2836 37.1075 29.7393 37.0319 30.1708 36.9416C30.5997 36.8518 31.0179 36.7446 31.413 36.6227C31.7976 36.5049 32.1756 36.3667 32.5456 36.2088C32.8966 36.0588 33.2386 35.8882 33.5696 35.698C33.8882 35.5144 34.1947 35.3106 34.4873 35.0878C34.7738 34.8693 35.0454 34.6319 35.3004 34.3773C35.5549 34.1221 35.7923 33.8504 36.011 33.564C36.2333 33.2711 36.437 32.9644 36.6206 32.6459C36.8109 32.3148 36.9815 31.9728 37.1315 31.6217C37.2892 31.2516 37.4274 30.8735 37.5453 30.4889C37.6664 30.0953 37.7735 29.6771 37.8637 29.2463C37.9531 28.8194 38.0289 28.364 38.0891 27.8917C38.148 27.428 38.1929 26.934 38.223 26.4234C38.252 25.9151 38.2669 25.3821 38.2669 24.8394V15.1602C38.2669 14.6175 38.2519 14.0845 38.223 13.5761C38.1929 13.0655 38.148 12.5715 38.0891 12.1078C38.0286 11.6341 37.9529 11.1783 37.8637 10.753C37.7741 10.324 37.667 9.90591 37.5453 9.51025C37.4273 9.12575 37.2891 8.74772 37.1315 8.37772C36.9815 8.02654 36.8109 7.68454 36.6206 7.35348C36.4371 7.03488 36.2335 6.7283 36.011 6.43559C35.7925 6.14892 35.5551 5.87719 35.3004 5.6222C35.0454 5.36744 34.7738 5.12991 34.4873 4.91117C34.1946 4.68871 33.8881 4.48502 33.5696 4.30133C33.2386 4.11117 32.8966 3.94059 32.5456 3.79049C32.1756 3.63263 31.7976 3.49448 31.413 3.37661C31.0212 3.25536 30.6034 3.14823 30.1708 3.05777C29.741 2.96784 29.2853 2.89199 28.8166 2.83233C28.3465 2.7729 27.8526 2.72779 27.3484 2.69863C26.8418 2.66928 26.3089 2.6543 25.7643 2.6543H16.3779C16.0611 2.6644 15.7606 2.79744 15.5402 3.02523C15.3198 3.25301 15.1968 3.55764 15.1972 3.87459C15.1971 4.03257 15.2282 4.18901 15.2887 4.33494C15.3492 4.48087 15.4379 4.61342 15.5498 4.72502C15.6616 4.83662 15.7943 4.92505 15.9404 4.98527C16.0864 5.04548 16.2429 5.0763 16.4009 5.07594C16.4234 5.0759 16.4458 5.07529 16.468 5.0741H25.7643C27.6694 5.0741 29.211 5.2476 30.4771 5.60456C31.7832 5.97324 32.8029 6.53748 33.5944 7.32986C34.3861 8.12153 34.9499 9.14158 35.3175 10.4482C35.6741 11.7136 35.8472 13.255 35.8472 15.1603V24.8395C35.8472 26.7446 35.6741 28.2858 35.3175 29.5512C34.9501 30.8575 34.3861 31.8773 33.5944 32.6699C32.8028 33.4625 31.7832 34.0265 30.4771 34.3946C29.211 34.7516 27.6694 34.9251 25.7643 34.9251H16.4746C16.4506 34.9236 16.4265 34.9229 16.4023 34.9229C16.0811 34.9265 15.7742 35.0568 15.5485 35.2854C15.3227 35.514 15.1964 35.8224 15.1968 36.1436C15.1967 36.4587 15.3204 36.7612 15.5413 36.9859C15.7622 37.2106 16.0625 37.3395 16.3775 37.3448Z" fill="#6E7191"/>
<path fill-rule="evenodd" clip-rule="evenodd" d="M22.0468 23.6054C22.0468 26.1481 21.1273 28.0822 19.4636 29.0424C18.745 29.4587 17.9274 29.6735 17.0969 29.6643C15.9608 29.6643 14.7165 29.2991 13.4586 28.5687L7.19659 24.9577C4.99216 23.6727 3.7749 21.9143 3.7749 19.9938C3.7749 18.0734 4.99211 16.3151 7.19659 15.0439L13.4586 11.4327C15.663 10.1613 17.7866 9.98554 19.4637 10.9459C21.1271 11.9062 22.0468 13.8403 22.0468 16.3829V18.7986H30.2279C30.26 18.7959 30.2926 18.7946 30.3255 18.7946C30.6467 18.7982 30.9535 18.9285 31.1793 19.157C31.405 19.3856 31.5314 19.6941 31.531 20.0153C31.5311 20.1733 31.5 20.3298 31.4395 20.4757C31.3789 20.6216 31.2902 20.7542 31.1784 20.8658C31.0666 20.9774 30.9338 21.0658 30.7878 21.126C30.6417 21.1862 30.4852 21.217 30.3273 21.2167C30.2793 21.2167 30.2314 21.2139 30.1839 21.2083H22.0468V23.6054ZM19.6991 16.5455C19.6991 14.8403 19.1696 13.5873 18.2006 13.0319C17.8054 12.8135 17.3601 12.7021 16.9087 12.7088C16.1595 12.7088 15.3069 12.9673 14.4026 13.4968L8.42193 16.9459C6.93658 17.7985 6.12261 18.8837 6.12261 19.9946C6.12261 21.1054 6.93658 22.1906 8.42193 23.043L14.4026 26.4921C15.8883 27.3447 17.2316 27.5127 18.2006 26.9572C19.1696 26.4018 19.6991 25.1486 19.6991 23.4436V16.5455Z" fill="#6E7191"/>
</g>
<defs>
<clipPath id="clip0_1_355">
<rect width="40" height="40" fill="white" transform="translate(0.997559 0.00390625)"/>
</clipPath>
</defs>
</svg>
