<svg width="41" height="41" viewBox="0 0 41 41" fill="none" xmlns="http://www.w3.org/2000/svg">
<g clip-path="url(#clip0_1_1569)">
<path fill-rule="evenodd" clip-rule="evenodd" d="M27.6783 31.2505C28.1173 31.5438 28.6334 31.7004 29.1613 31.7005C29.5933 31.6966 30.0195 31.6005 30.4113 31.4185C30.8401 31.1893 31.1984 30.8479 31.4482 30.4309C31.698 30.0138 31.8297 29.5367 31.8293 29.0505V27.2005C33.6245 27.0155 35.3043 26.2285 36.5953 24.9675C37.3646 24.1709 37.966 23.2279 38.364 22.1945C38.762 21.1611 38.9485 20.0583 38.9123 18.9515V10.4515C38.9625 9.34388 38.7813 8.23793 38.3803 7.20421C37.9793 6.17048 37.3673 5.23167 36.5832 4.44764C35.7992 3.66361 34.8604 3.05157 33.8267 2.65056C32.7929 2.24954 31.687 2.06835 30.5793 2.11853H16.4123C15.3047 2.06835 14.1987 2.24954 13.165 2.65056C12.1313 3.05157 11.1925 3.66361 10.4085 4.44764C9.62443 5.23167 9.01239 6.17048 8.61137 7.20421C8.21036 8.23793 8.02916 9.34388 8.07935 10.4515V13.9785C6.79827 14.296 5.63258 14.9934 4.74285 15.9919C3.5966 17.2783 2.9995 18.9624 3.07936 20.6835V27.4675C3.05113 28.3878 3.20764 29.3045 3.53965 30.1632C3.87166 31.022 4.37242 31.8056 5.01236 32.4675C6.03305 33.4528 7.34015 34.0887 8.74536 34.2835V35.5495C8.74164 35.8622 8.8002 36.1724 8.91764 36.4622C9.03507 36.7519 9.20903 37.0154 9.42935 37.2372C9.64968 37.459 9.91197 37.6347 10.2009 37.7541C10.4899 37.8735 10.7997 37.9342 11.1124 37.9325C11.5891 37.9358 12.0551 37.7904 12.4454 37.5165L17.1604 34.3835H21.3104C22.8138 34.4704 24.3004 34.0303 25.5143 33.139C26.2791 32.5774 26.9054 31.8589 27.356 31.0388L27.6783 31.2505ZM9.23718 16.3133C9.30069 16.3193 9.3649 16.3208 9.42935 16.3175C9.43957 16.3166 9.44979 16.3157 9.46002 16.3149C9.63374 16.2997 9.80746 16.2845 9.99635 16.2845H21.3133C21.9052 16.2377 22.5001 16.3198 23.0571 16.5252C23.6142 16.7305 24.12 17.0543 24.5398 17.4741C24.9596 17.8939 25.2833 18.3997 25.4887 18.9567C25.6286 19.3362 25.7113 19.7332 25.735 20.1349C25.745 20.3172 25.7428 20.5005 25.7284 20.6835V27.4665C25.7304 27.9337 25.6689 28.399 25.5454 28.8495C25.3192 29.7778 24.7678 30.5943 23.9911 31.1508C23.2145 31.7072 22.2641 31.9669 21.3124 31.8825H16.7794C16.5299 31.8855 16.2867 31.9608 16.0794 32.0995L11.2454 35.3165V33.1335C11.243 32.8027 11.1105 32.4862 10.8766 32.2523C10.6427 32.0184 10.3261 31.8859 9.99536 31.8835C9.40765 31.9094 8.82066 31.8181 8.26855 31.615C7.71643 31.4119 7.21022 31.1011 6.77936 30.7005C6.37406 30.2688 6.05913 29.7603 5.85305 29.2052C5.64698 28.65 5.55393 28.0592 5.57936 27.4675V20.6835C5.53229 20.1406 5.59562 19.5937 5.76556 19.0758C5.93549 18.5579 6.20849 18.0798 6.56813 17.6703C6.92776 17.2608 7.36658 16.9283 7.85814 16.6929C8.29203 16.4851 8.75909 16.3567 9.23718 16.3133Z" fill="#6E7191"/>
</g>
<defs>
<clipPath id="clip0_1_1569">
<rect width="40.005" height="40.005" fill="white" transform="translate(0.987305 0.0283203)"/>
</clipPath>
</defs>
</svg>
