<svg width="41" height="41" viewBox="0 0 41 41" fill="none" xmlns="http://www.w3.org/2000/svg">
<g clip-path="url(#clip0_1_1565)">
<path fill-rule="evenodd" clip-rule="evenodd" d="M27.6733 31.2505C28.1123 31.5438 28.6284 31.7004 29.1563 31.7005C29.5883 31.6966 30.0145 31.6005 30.4063 31.4185C30.8351 31.1893 31.1934 30.8479 31.4432 30.4309C31.693 30.0138 31.8247 29.5367 31.8243 29.0505V27.2005C33.6195 27.0155 35.2993 26.2285 36.5903 24.9675C37.3596 24.1709 37.961 23.2279 38.359 22.1945C38.757 21.1611 38.9435 20.0583 38.9073 18.9515V10.4515C38.9575 9.34388 38.7763 8.23793 38.3753 7.20421C37.9743 6.17048 37.3623 5.23167 36.5782 4.44764C35.7942 3.66361 34.8554 3.05157 33.8217 2.65056C32.7879 2.24954 31.682 2.06835 30.5743 2.11853H16.4073C15.2997 2.06835 14.1937 2.24954 13.16 2.65056C12.1263 3.05157 11.1875 3.66361 10.4035 4.44764C9.61942 5.23167 9.00738 6.17048 8.60637 7.20421C8.20535 8.23793 8.02416 9.34388 8.07434 10.4515V13.9785C6.79327 14.296 5.62757 14.9934 4.73785 15.9919C3.5916 17.2783 2.99449 18.9624 3.07435 20.6835V27.4675C3.04613 28.3878 3.20264 29.3045 3.53465 30.1632C3.86665 31.022 4.36742 31.8056 5.00735 32.4675C6.02805 33.4528 7.33514 34.0887 8.74035 34.2835V35.5495C8.73663 35.8622 8.7952 36.1724 8.91263 36.4622C9.03007 36.7519 9.20402 37.0154 9.42435 37.2372C9.64468 37.459 9.90697 37.6347 10.1959 37.7541C10.4849 37.8735 10.7947 37.9342 11.1074 37.9325C11.5841 37.9358 12.05 37.7904 12.4404 37.5165L17.1554 34.3835H21.3054C22.8088 34.4704 24.2954 34.0303 25.5093 33.139C26.2741 32.5774 26.9004 31.8589 27.351 31.0388L27.6733 31.2505ZM9.23217 16.3133C9.29568 16.3193 9.35989 16.3208 9.42434 16.3175C9.43457 16.3166 9.44479 16.3157 9.45501 16.3149C9.62873 16.2997 9.80246 16.2845 9.99134 16.2845H21.3083C21.9002 16.2377 22.4951 16.3198 23.0521 16.5252C23.6092 16.7305 24.115 17.0543 24.5348 17.4741C24.9546 17.8939 25.2783 18.3997 25.4837 18.9567C25.6236 19.3362 25.7063 19.7332 25.73 20.1349C25.74 20.3172 25.7378 20.5005 25.7234 20.6835V27.4665C25.7254 27.9337 25.6639 28.399 25.5404 28.8495C25.3142 29.7778 24.7628 30.5943 23.9861 31.1508C23.2095 31.7072 22.2591 31.9669 21.3074 31.8825H16.7744C16.5249 31.8855 16.2817 31.9608 16.0744 32.0995L11.2404 35.3165V33.1335C11.238 32.8027 11.1055 32.4862 10.8716 32.2523C10.6377 32.0184 10.3211 31.8859 9.99035 31.8835C9.40264 31.9094 8.81565 31.8181 8.26354 31.615C7.71143 31.4119 7.20522 31.1011 6.77435 30.7005C6.36905 30.2688 6.05412 29.7603 5.84805 29.2052C5.64198 28.65 5.54892 28.0592 5.57435 27.4675V20.6835C5.52728 20.1406 5.59062 19.5937 5.76055 19.0758C5.93048 18.5579 6.20349 18.0798 6.56312 17.6703C6.92276 17.2608 7.36158 16.9283 7.85314 16.6929C8.28703 16.4851 8.75408 16.3567 9.23217 16.3133ZM21.6081 13.7608C22.4316 13.7591 23.249 13.9109 24.0183 14.2094C24.8762 14.5423 25.6553 15.0502 26.306 15.7009C26.9566 16.3516 27.4646 17.1307 27.7975 17.9886C28.1304 18.8464 28.2808 19.7643 28.2393 20.6835V27.4665C28.2233 27.8505 28.2063 28.2185 28.1563 28.5675L29.2393 29.1845C29.2689 29.1721 29.2942 29.1513 29.312 29.1246C29.3298 29.0979 29.3393 29.0666 29.3393 29.0345V26.0185C29.3417 25.6877 29.4741 25.3712 29.7081 25.1373C29.942 24.9033 30.2585 24.7709 30.5893 24.7685C31.3677 24.8029 32.145 24.6805 32.8751 24.4085C33.6051 24.1366 34.2731 23.7207 34.8393 23.1855C35.3764 22.6206 35.7935 21.9529 36.0656 21.2225C36.3376 20.492 36.459 19.7141 36.4223 18.9355V10.4355C36.4777 9.65529 36.3648 8.87225 36.0913 8.13943C35.8178 7.40661 35.39 6.74112 34.8369 6.18801C34.2838 5.63491 33.6183 5.2071 32.8854 4.93356C32.1526 4.66002 31.3696 4.54713 30.5893 4.60253H16.4243C15.6442 4.54715 14.8612 4.66002 14.1285 4.9335C13.3958 5.20698 12.7303 5.6347 12.1772 6.18769C11.6241 6.74068 11.1963 7.40605 10.9227 8.13874C10.6491 8.87144 10.5361 9.65437 10.5913 10.4345V13.7675H21.3067C21.4072 13.763 21.5077 13.7608 21.6081 13.7608Z" fill="#6E7191"/>
</g>
<defs>
<clipPath id="clip0_1_1565">
<rect width="40.005" height="40.005" fill="white" transform="translate(0.987305 0.0234375)"/>
</clipPath>
</defs>
</svg>
