<svg width="40" height="41" viewBox="0 0 40 41" fill="none" xmlns="http://www.w3.org/2000/svg">
<g clip-path="url(#clip0_1_4714)">
<path d="M15.1848 37.8637H24.8148C33.5299 37.8637 37.2538 34.1397 37.2538 25.4247V17.3997C37.2538 17.0804 37.127 16.7741 36.9012 16.5484C36.6754 16.3226 36.3692 16.1957 36.0499 16.1957C35.7305 16.1957 35.4243 16.3226 35.1985 16.5484C34.9727 16.7741 34.8458 17.0804 34.8458 17.3997V25.4167C34.8458 32.8157 32.2148 35.4477 24.8148 35.4477H15.1848C7.78585 35.4477 5.15385 32.8167 5.15385 25.4167V15.7867C5.15385 8.38771 7.78485 5.75571 15.1848 5.75571H23.2099C23.5271 5.75233 23.8303 5.62482 24.0546 5.4005C24.279 5.17619 24.4065 4.87292 24.4098 4.55571C24.4065 4.2385 24.279 3.93524 24.0546 3.71092C23.8303 3.48661 23.5271 3.35909 23.2099 3.35571H15.1848C6.46985 3.35571 2.74585 7.07971 2.74585 15.7947V25.4247C2.74585 34.1397 6.46985 37.8637 15.1848 37.8637Z" fill="#6E7191"/>
<path fill-rule="evenodd" clip-rule="evenodd" d="M31.2356 15.3937C30.0451 15.3937 28.8814 15.0407 27.8916 14.3793C26.9018 13.718 26.1303 12.7779 25.6747 11.6781C25.2192 10.5783 25.1 9.36804 25.3322 8.20047C25.5645 7.0329 26.1377 5.96041 26.9795 5.11864C27.8213 4.27687 28.8937 3.70361 30.0613 3.47137C31.2289 3.23912 32.4391 3.35832 33.5389 3.81388C34.6388 4.26945 35.5788 5.04092 36.2402 6.03074C36.9015 7.02056 37.2546 8.18427 37.2546 9.37472C37.254 10.9709 36.6197 12.5015 35.491 13.6302C34.3624 14.7589 32.8317 15.3932 31.2356 15.3937ZM31.2356 5.76372C30.5214 5.76372 29.8232 5.9755 29.2294 6.37228C28.6356 6.76906 28.1727 7.33302 27.8994 7.99285C27.6261 8.65267 27.5546 9.37872 27.6939 10.0792C27.8333 10.7797 28.1772 11.4231 28.6822 11.9281C29.1872 12.4331 29.8306 12.777 30.5311 12.9163C31.2316 13.0557 31.9576 12.9842 32.6174 12.7108C33.2772 12.4375 33.8412 11.9747 34.238 11.3809C34.6348 10.7871 34.8466 10.0889 34.8466 9.37472C34.845 8.41751 34.464 7.49996 33.7872 6.82311C33.1103 6.14626 32.1928 5.7653 31.2356 5.76372Z" fill="#6E7191"/>
<path d="M20.0002 16.5967H11.9712C11.6527 16.5933 11.3482 16.4647 11.1237 16.2387C10.8991 16.0126 10.7725 15.7073 10.7712 15.3887C10.7746 15.0715 10.9021 14.7682 11.1265 14.5439C11.3508 14.3196 11.654 14.1921 11.9712 14.1887H20.0002C20.3175 14.1921 20.6207 14.3196 20.845 14.5439C21.0693 14.7682 21.1969 15.0715 21.2002 15.3887C21.1989 15.7073 21.0724 16.0126 20.8478 16.2387C20.6233 16.4647 20.3188 16.5933 20.0002 16.5967Z" fill="#6E7191"/>
<path d="M11.9712 29.8389H26.4202C26.7388 29.8355 27.0433 29.7069 27.2678 29.4808C27.4924 29.2548 27.6189 28.9495 27.6202 28.6309C27.6169 28.3137 27.4893 28.0104 27.265 27.7861C27.0407 27.5618 26.7375 27.4343 26.4202 27.4309H11.9712C11.654 27.4343 11.3508 27.5618 11.1265 27.7861C10.9021 28.0104 10.7746 28.3137 10.7712 28.6309C10.7725 28.9495 10.8991 29.2548 11.1237 29.4808C11.3482 29.7069 11.6527 29.8355 11.9712 29.8389Z" fill="#6E7191"/>
<path d="M26.4202 23.3047H11.9712C11.6527 23.3013 11.3482 23.1727 11.1237 22.9467C10.8991 22.7206 10.7725 22.4153 10.7712 22.0967C10.7746 21.7795 10.9021 21.4763 11.1265 21.2519C11.3508 21.0276 11.654 20.9001 11.9712 20.8967H26.4202C26.7375 20.9001 27.0407 21.0276 27.265 21.2519C27.4893 21.4763 27.6169 21.7795 27.6202 22.0967C27.6189 22.4153 27.4924 22.7206 27.2678 22.9467C27.0433 23.1727 26.7388 23.3013 26.4202 23.3047Z" fill="#6E7191"/>
</g>
<defs>
<clipPath id="clip0_1_4714">
<rect width="40" height="40" fill="white" transform="translate(-0.000244141 0.609619)"/>
</clipPath>
</defs>
</svg>
