<svg width="41" height="41" viewBox="0 0 41 41" fill="none" xmlns="http://www.w3.org/2000/svg">
<path d="M3.94101 5.9799C3.94053 5.69679 3.9817 5.4152 4.06307 5.14403C4.14109 4.88532 4.25507 4.63947 4.40191 4.41264C4.69171 3.96612 5.09205 3.60144 5.56393 3.3551C6.02847 3.10994 6.54885 2.99035 7.07383 3.00747C7.34318 3.01649 7.60985 3.06359 7.86576 3.14808C8.13761 3.23809 8.39486 3.36788 8.62962 3.53184L36.2277 17.9644V17.9761C36.5182 18.0949 36.7882 18.2593 37.0276 18.4624C37.2509 18.6519 37.4438 18.8746 37.5996 19.1225C37.7505 19.3644 37.8661 19.626 37.9426 19.9007C38.0184 20.1729 38.0567 20.4551 38.0566 20.7376C38.0588 21.2997 37.9051 21.8512 37.6126 22.3312C37.4621 22.5769 37.2754 22.7986 37.0586 22.9884C36.8267 23.1904 36.5649 23.3546 36.2826 23.4766L8.5786 37.9756C8.33402 38.1381 8.06687 38.2638 7.78569 38.3486C7.52044 38.4269 7.24542 38.4668 6.96886 38.4667C6.77411 38.4664 6.57978 38.4474 6.38882 38.4091C6.19939 38.3712 6.01397 38.3156 5.83491 38.2431C5.6562 38.1702 5.48457 38.0806 5.32201 37.9765C5.15939 37.8725 5.00669 37.7542 4.86599 37.6221C4.57298 37.3503 4.3392 37.0207 4.17952 36.6544C4.01983 36.288 3.93771 35.8929 3.93808 35.4933C3.93874 35.2646 3.96415 35.0359 4.014 34.8127L8.96968 21.3772C9.01569 21.166 9.03891 20.9499 9.03877 20.7337C9.03891 20.5175 9.01569 20.3024 8.96968 20.0911L4.014 6.65954C3.96545 6.43649 3.94098 6.20818 3.94101 5.9799ZM11.4954 20.5384C11.4952 20.7192 11.4741 20.8995 11.4324 21.0755L7.52472 32.2211L7.27889 32.9437C7.07891 33.5177 6.89676 34.06 6.76477 34.509C6.6473 34.8558 6.57581 35.2168 6.5519 35.5822C6.54461 35.6446 6.55032 35.7076 6.56874 35.7677C6.58716 35.8278 6.61781 35.8832 6.65882 35.9308C6.70271 35.9625 6.75325 35.9844 6.80652 35.9943C6.85979 36.0041 6.91456 36.0023 6.9669 35.9884C7.13281 35.9588 7.29413 35.9073 7.44685 35.8361C7.81382 35.6781 8.26376 35.4245 8.73972 35.1545C8.90571 35.0605 9.07771 34.9634 9.24969 34.8674L34.0598 21.9152C34.4725 21.7325 34.8689 21.5147 35.2448 21.2649C35.3576 21.1894 35.4585 21.0983 35.5446 20.9934C35.6055 20.9212 35.6408 20.831 35.6447 20.7366C35.6416 20.6418 35.6063 20.55 35.5446 20.4778C35.4568 20.3733 35.3541 20.2828 35.2397 20.2083C34.8516 19.963 34.4432 19.7517 34.0188 19.5765L9.30071 6.04338C8.81528 5.76452 8.30562 5.53005 7.77788 5.34323C7.58984 5.27881 7.3935 5.24141 7.19491 5.23289C7.12528 5.2272 7.05519 5.23629 6.98887 5.25828C6.92256 5.28027 6.86139 5.31561 6.80896 5.36179C6.74173 5.43258 6.69342 5.51923 6.66883 5.61372C6.6374 5.73174 6.62265 5.8529 6.62489 5.97502C6.71555 6.90333 6.95746 7.81108 7.3409 8.66134L11.4404 19.9974C11.4798 20.1746 11.4982 20.3559 11.4954 20.5374V20.5384Z" fill="#6E7191"/>
</svg>
