<svg width="41" height="41" viewBox="0 0 41 41" fill="none" xmlns="http://www.w3.org/2000/svg">
<g clip-path="url(#clip0_1_6517)">
<path fill-rule="evenodd" clip-rule="evenodd" d="M20.7086 13.1906C20.9672 13.2281 21.2284 13.2477 21.4897 13.2482C22.0964 13.2592 22.6996 13.1483 23.2629 12.923C23.8263 12.6978 24.3388 12.3621 24.7706 11.9359C26.2901 10.1281 27.1406 7.85166 27.1785 5.49037C27.2381 4.94817 27.1032 4.40237 26.7977 3.95053C26.5228 3.73764 26.1768 3.63942 25.831 3.67517C23.9999 3.85979 22.2418 4.49001 20.7105 5.51088C19.177 4.49019 17.4171 3.86003 15.5842 3.67517C15.2384 3.63942 14.8924 3.73764 14.6175 3.95053C13.6817 4.88541 14.4969 9.78713 16.6446 11.9359C17.0762 12.3619 17.5873 12.6978 18.1503 12.923C18.7133 13.1483 19.3153 13.2589 19.9216 13.2482C20.1849 13.2479 20.448 13.2282 20.7086 13.1906ZM21.1616 10.9526C21.0101 10.9526 20.8587 10.943 20.7086 10.9223C20.5585 10.943 20.407 10.9526 20.2555 10.9526C19.9028 10.9587 19.5539 10.8949 19.2263 10.7641C18.8988 10.6333 18.5989 10.4384 18.3475 10.191C17.1517 8.99511 16.6111 7.50722 17.168 6.94429C17.3263 6.82326 17.5244 6.7669 17.7226 6.78709C18.7899 6.89459 19.8152 7.26153 20.7086 7.85531C21.5996 7.26117 22.6231 6.89415 23.6887 6.78709C23.8869 6.7669 24.085 6.82326 24.2433 6.94429C24.8032 7.50622 24.2695 8.99111 23.0696 10.191C22.818 10.4381 22.5203 10.6333 22.1928 10.7641C21.8652 10.8949 21.5143 10.9584 21.1616 10.9526Z" fill="#6E7191"/>
<path fill-rule="evenodd" clip-rule="evenodd" d="M20.0497 34.9061C20.2836 35.1399 20.6001 35.2724 20.9309 35.2747C21.2616 35.2724 21.5782 35.1399 21.812 34.9061C22.0393 34.6788 22.1708 34.3736 22.1802 34.053C24.4142 33.6178 26.278 31.6034 26.3507 29.8161V29.7116C26.3509 29.5287 26.3384 29.346 26.3136 29.1648C26.2594 28.4789 25.9932 27.8268 25.5519 27.2988C25.1107 26.7709 24.5164 26.3939 23.851 26.2189L22.1807 25.6341V21.7333C23.1072 22.2108 23.849 22.987 23.849 23.5991C23.8519 23.9296 23.9863 24.2452 24.2201 24.4789C24.4539 24.7125 24.7684 24.8453 25.0989 24.8479C25.4294 24.8453 25.7458 24.7125 25.9796 24.4789C26.2134 24.2452 26.3458 23.9296 26.3487 23.5991C26.3487 21.7129 24.3807 19.7542 22.1807 19.0595V19.0268C22.1784 18.696 22.0459 18.3795 21.812 18.1456C21.5782 17.9117 21.2616 17.7793 20.9309 17.7769C20.6001 17.7793 20.2836 17.9117 20.0497 18.1456C19.8501 18.3452 19.7243 18.6051 19.6903 18.8827C17.4124 19.3282 15.5141 21.4167 15.5141 23.229C15.4411 24.0271 15.6526 24.8253 16.1098 25.4836C16.5669 26.1419 17.2405 26.6178 18.0138 26.8282L19.681 27.4099V31.2142C19.3077 31.0252 18.9628 30.7787 18.6602 30.481C18.1753 29.9411 18.0158 29.6216 18.0158 29.3357C18.0129 29.0045 17.8794 28.6877 17.6447 28.4539C17.4101 28.2202 17.0932 28.0884 16.762 28.0868C16.4314 28.0892 16.1151 28.2222 15.8813 28.4559C15.6474 28.6896 15.5148 29.0051 15.5122 29.3357C15.5122 31.2224 17.4783 33.1826 19.681 33.8756V34.0249C19.6834 34.3556 19.8158 34.6722 20.0497 34.9061ZM22.8218 31.146C22.6228 31.2864 22.407 31.3983 22.1807 31.4798V28.282L23.0288 28.578C23.5768 28.7699 23.8311 28.9002 23.8451 29.7321C23.6696 30.3038 23.3104 30.8013 22.8218 31.146ZM19.0332 21.7956C19.234 21.6519 19.4521 21.5377 19.681 21.4548V24.7588L18.834 24.4623C18.2681 24.2643 18.0197 24.1309 18.0197 23.231C18.1862 22.6519 18.5432 22.1462 19.0332 21.7956Z" fill="#6E7191"/>
<path fill-rule="evenodd" clip-rule="evenodd" d="M7.25586 30.5738C7.25586 37.297 13.6222 38.2242 20.5003 38.2242C27.3784 38.2242 33.7447 37.297 33.7467 30.5738C33.5302 26.6976 32.1434 22.9784 29.7687 19.9072C28.6113 18.3136 27.1823 16.9373 25.5465 15.8403C24.0588 14.8202 22.3058 14.2562 20.5023 14.2175C18.6981 14.2559 16.9444 14.8199 15.456 15.8403C13.8199 16.9368 12.3888 18.3132 11.2319 19.9072C8.85681 22.978 7.47058 26.6976 7.25586 30.5738ZM13.093 21.1775C15.2468 18.2849 17.9456 16.6273 20.5003 16.6273V16.6244C23.054 16.6244 25.7538 18.2849 27.9076 21.1775C29.8033 23.6326 30.9103 26.6039 31.083 29.7009C31.1583 30.7699 30.8908 31.8359 30.3194 32.7425C29.7479 33.6491 28.9026 34.3491 27.9056 34.7422C25.7789 35.6911 22.832 35.8134 20.5003 35.8134C18.1686 35.8134 15.2198 35.6911 13.093 34.7422C12.0961 34.3491 11.2507 33.6491 10.6793 32.7425C10.1078 31.8359 9.84033 30.7699 9.91568 29.7009C10.0879 26.6035 11.1956 23.6318 13.093 21.1775Z" fill="#6E7191"/>
</g>
<defs>
<clipPath id="clip0_1_6517">
<rect width="40" height="40" fill="white" transform="translate(0.5 0.777344)"/>
</clipPath>
</defs>
</svg>
