<svg width="41" height="41" viewBox="0 0 41 41" fill="none" xmlns="http://www.w3.org/2000/svg">
<g clip-path="url(#clip0_1_276)">
<path fill-rule="evenodd" clip-rule="evenodd" d="M17.6774 24.9718C18.66 25.6284 19.8152 25.9788 20.997 25.9788C22.5815 25.9783 24.1009 25.3486 25.2214 24.2282C26.3418 23.1078 26.9714 21.5883 26.972 20.0038C26.972 18.8221 26.6215 17.6669 25.965 16.6843C25.3085 15.7017 24.3753 14.9359 23.2835 14.4836C22.1917 14.0314 20.9903 13.9131 19.8313 14.1436C18.6723 14.3742 17.6076 14.9432 16.772 15.7788C15.9364 16.6145 15.3673 17.6791 15.1368 18.8381C14.9062 19.9972 15.0246 21.1986 15.4768 22.2903C15.929 23.3821 16.6949 24.3153 17.6774 24.9718ZM19.0053 17.023C19.5948 16.6291 20.2879 16.4188 20.997 16.4188C21.9474 16.4201 22.8585 16.7983 23.5305 17.4703C24.2025 18.1423 24.5807 19.0534 24.582 20.0038C24.582 20.7129 24.3717 21.406 23.9778 21.9955C23.5839 22.5851 23.024 23.0446 22.3689 23.3159C21.7138 23.5873 20.993 23.6583 20.2976 23.5199C19.6022 23.3816 18.9634 23.0402 18.462 22.5388C17.9606 22.0374 17.6192 21.3986 17.4809 20.7032C17.3425 20.0078 17.4135 19.287 17.6849 18.6319C17.9562 17.9768 18.4157 17.4169 19.0053 17.023Z" fill="#6E7191"/>
<path fill-rule="evenodd" clip-rule="evenodd" d="M25.1125 36.1129C25.4398 36.194 25.7754 36.2366 26.1125 36.2399C26.7888 36.2345 27.4525 36.0562 28.0405 35.7219L30.7965 34.1449C31.2824 33.8734 31.708 33.506 32.0477 33.0651C32.3873 32.6242 32.6339 32.1189 32.7725 31.5799C32.9196 31.0457 32.9587 30.4876 32.8876 29.9382C32.8166 29.3888 32.6367 28.859 32.3585 28.3799C32.1387 28.1001 31.9941 27.7687 31.9382 27.4173C31.8824 27.0659 31.9173 26.706 32.0395 26.3719C32.2695 26.1003 32.5639 25.8909 32.8959 25.7628C33.2279 25.6347 33.5868 25.5921 33.9395 25.6389C35.0586 25.6368 36.1313 25.1913 36.9226 24.4C37.7139 23.6086 38.1594 22.536 38.1615 21.4169V18.6169C38.1594 17.4978 37.7139 16.4251 36.9226 15.6338C36.1313 14.8425 35.0586 14.397 33.9395 14.3949C33.5868 14.4416 33.2279 14.399 32.8959 14.2709C32.5639 14.1429 32.2695 13.9334 32.0395 13.6619C31.9213 13.3271 31.8885 12.9681 31.9442 12.6174C31.9999 12.2667 32.1423 11.9356 32.3585 11.6539C32.9159 10.6819 33.0646 9.52835 32.7719 8.44677C32.4792 7.3652 31.7691 6.44409 30.7975 5.88588L28.0565 4.30888C27.6193 4.05254 27.1358 3.8851 26.6337 3.81618C26.1317 3.74727 25.6209 3.77823 25.1308 3.9073C24.6408 4.03637 24.181 4.261 23.778 4.56829C23.375 4.87557 23.0367 5.25946 22.7825 5.69788L22.6075 5.99788C21.6675 7.62288 20.3765 7.62288 19.4365 5.99788L19.2455 5.67888C18.7292 4.80088 17.8869 4.16251 16.902 3.9029C15.9171 3.64328 14.8695 3.78346 13.9875 4.29288L11.2305 5.87088C10.7445 6.14284 10.3189 6.5107 9.97938 6.95214C9.63988 7.39357 9.39361 7.89939 9.25551 8.43888C8.96649 9.51843 9.11527 10.6684 9.66951 11.6389C9.89057 11.9188 10.0362 12.2507 10.0926 12.6029C10.149 12.9552 10.1142 13.3159 9.99151 13.6509C9.76156 13.9224 9.46707 14.1319 9.13508 14.2599C8.8031 14.388 8.44426 14.4306 8.09151 14.3839C6.97241 14.386 5.89976 14.8315 5.10844 15.6228C4.31712 16.4141 3.87162 17.4868 3.86951 18.6059V21.4059C3.87109 22.5248 4.31594 23.5975 5.10667 24.3892C5.8974 25.1809 6.96959 25.627 8.08851 25.6299C8.44126 25.5831 8.8001 25.6257 9.13208 25.7538C9.46407 25.8819 9.75856 26.0913 9.98851 26.3629C10.1067 26.6977 10.1395 27.0567 10.0838 27.4074C10.0281 27.758 9.88568 28.0892 9.66951 28.3709C9.11271 29.3427 8.96437 30.4958 9.25705 31.5768C9.54973 32.6579 10.2595 33.5787 11.2305 34.1369L13.9745 35.7099C14.408 35.9709 14.8901 36.1409 15.3914 36.2097C15.8927 36.2784 16.4027 36.2445 16.8905 36.1099C17.3796 35.9821 17.8384 35.7585 18.2404 35.4521C18.6424 35.1457 18.9796 34.7626 19.2325 34.3249L19.4075 34.0249C20.3475 32.3999 21.6385 32.3999 22.5785 34.0249L22.7695 34.3439C23.2913 35.2153 24.1315 35.8497 25.1125 36.1129ZM23.1587 31.0775C22.517 30.6431 21.7708 30.3885 20.9975 30.3399V30.3439C20.2255 30.3967 19.4813 30.6535 18.8409 31.0879C18.2005 31.5224 17.6869 32.119 17.3525 32.8169L17.1775 33.1169C16.9756 33.4548 16.6498 33.7005 16.2695 33.8019C16.085 33.8513 15.8923 33.8628 15.7032 33.8354C15.5141 33.8081 15.3325 33.7426 15.1695 33.6429L12.4135 32.0649C11.9981 31.8168 11.6955 31.417 11.5695 30.9499C11.442 30.4857 11.5035 29.9899 11.7405 29.5709C12.1787 28.9315 12.4391 28.1871 12.4952 27.414C12.5512 26.6409 12.4009 25.8668 12.0595 25.1709C11.6311 24.5233 11.0372 24.0021 10.3395 23.6614C9.6418 23.3206 8.86564 23.1727 8.09151 23.2329C7.60571 23.2326 7.13989 23.0395 6.79638 22.696C6.45287 22.3525 6.25977 21.8867 6.25951 21.4009V18.6009C6.25845 18.3601 6.30512 18.1215 6.39684 17.8989C6.48855 17.6762 6.62349 17.474 6.79384 17.3038C6.9642 17.1336 7.16659 16.9989 7.38933 16.9074C7.61207 16.816 7.85072 16.7696 8.09151 16.7709C8.86535 16.8329 9.64169 16.6868 10.3401 16.3478C11.0385 16.0088 11.6335 15.4892 12.0635 14.8429C12.4049 14.147 12.5552 13.3728 12.4992 12.5997C12.4431 11.8266 12.1827 11.0823 11.7445 10.4429C11.6255 10.2348 11.5488 10.0052 11.5188 9.76733C11.4888 9.52949 11.506 9.28805 11.5695 9.05688C11.6963 8.58673 12.0041 8.18587 12.4255 7.94188L15.1815 6.34588C15.5124 6.15675 15.9041 6.10422 16.2731 6.19947C16.6422 6.29472 16.9595 6.53023 17.1575 6.85588L17.3325 7.17488C17.6649 7.87479 18.1787 8.47295 18.8203 8.90729C19.462 9.34163 20.2082 9.5963 20.9815 9.64488C21.7548 9.5963 22.501 9.34163 23.1427 8.90729C23.7844 8.47295 24.2981 7.87479 24.6305 7.17488L24.8055 6.87488C24.9026 6.70832 25.0317 6.56256 25.1852 6.44595C25.3388 6.32934 25.5139 6.24416 25.7004 6.1953C25.8869 6.14644 26.0812 6.13486 26.2722 6.16121C26.4633 6.18756 26.6472 6.25134 26.8135 6.34888L29.5695 7.92588C29.9839 8.17276 30.2864 8.57062 30.4135 9.03588C30.477 9.26705 30.4942 9.50849 30.4642 9.74633C30.4342 9.98418 30.3575 10.2138 30.2385 10.4219C29.8003 11.0613 29.5399 11.8056 29.4838 12.5787C29.4278 13.3518 29.5781 14.126 29.9195 14.8219C30.3491 15.4675 30.9433 15.9866 31.6407 16.3255C32.3382 16.6645 33.1135 16.811 33.8865 16.7499C34.3723 16.7501 34.8381 16.9432 35.1816 17.2868C35.5251 17.6303 35.7182 18.0961 35.7185 18.5819V21.3819C35.7198 21.6228 35.6734 21.8617 35.5818 22.0845C35.4902 22.3074 35.3553 22.5099 35.1849 22.6803C35.0145 22.8506 34.812 22.9855 34.5891 23.0771C34.3663 23.1687 34.1275 23.2152 33.8865 23.2139C33.1135 23.1528 32.3382 23.2993 31.6407 23.6382C30.9433 23.9772 30.3491 24.4963 29.9195 25.1419C29.5781 25.8378 29.4278 26.6119 29.4838 27.385C29.5399 28.1581 29.8003 28.9025 30.2385 29.5419C30.3575 29.75 30.4342 29.9796 30.4642 30.2174C30.4942 30.4553 30.477 30.6967 30.4135 30.9279C30.2857 31.3987 29.9765 31.7997 29.5535 32.0429L26.7975 33.6359C26.4648 33.8242 26.0716 33.8745 25.7022 33.7762C25.3327 33.6779 25.0166 33.4386 24.8215 33.1099L24.6465 32.8099C24.3141 32.11 23.8004 31.5118 23.1587 31.0775Z" fill="#6E7191"/>
</g>
<defs>
<clipPath id="clip0_1_276">
<rect width="39.999" height="39.999" fill="white" transform="translate(0.998535 0.00390625)"/>
</clipPath>
</defs>
</svg>
