<svg width="41" height="41" viewBox="0 0 41 41" fill="none" xmlns="http://www.w3.org/2000/svg">
<path fill-rule="evenodd" clip-rule="evenodd" d="M15.5219 34.3599C15.9226 33.7602 16.2166 33.1003 16.395 32.4093H26.2932C26.5279 33.5588 27.0952 34.6142 27.9251 35.4441C28.762 36.281 29.8283 36.851 30.9892 37.0819C32.15 37.3128 33.3533 37.1943 34.4468 36.7413C35.5402 36.2884 36.4749 35.5214 37.1324 34.5373C37.79 33.5532 38.141 32.3962 38.141 31.2126C38.1404 29.6256 37.5098 28.1038 36.3876 26.9816C35.2655 25.8595 33.7436 25.2288 32.1567 25.2283C30.9731 25.2283 29.8161 25.5792 28.832 26.2368C27.8479 26.8944 27.0808 27.829 26.6279 28.9225C26.4819 29.275 26.3706 29.6389 26.2946 30.0092H20.157C20.3271 29.8287 20.489 29.6396 20.6419 29.4421C21.6816 28.099 22.2458 26.4487 22.2458 24.7502V24.7182L22.2298 19.2449V19.2129C22.2287 17.48 22.7674 15.7897 23.771 14.3769C24.5778 13.2412 25.6528 12.3302 26.8936 11.7207C27.1674 12.2265 27.514 12.6929 27.9251 13.104C28.762 13.9409 29.8283 14.5109 30.9892 14.7418C32.15 14.9727 33.3533 14.8542 34.4468 14.4013C35.5402 13.9483 36.4749 13.1813 37.1324 12.1972C37.79 11.2131 38.141 10.0561 38.141 8.87248C38.1404 7.28551 37.5098 5.76369 36.3876 4.64153C35.2655 3.51937 33.7436 2.88871 32.1567 2.88818C30.9731 2.88818 29.8161 3.23915 28.832 3.89672C27.8479 4.55428 27.0808 5.4889 26.6279 6.58239C26.2548 7.48321 26.1086 8.45852 26.1978 9.42325C24.4581 10.2013 22.9517 11.4317 21.84 12.9935C20.5472 14.8096 19.8526 16.9836 19.8527 19.2129V19.2609L19.8687 24.7342V24.7502C19.8686 25.9193 19.4801 27.0553 18.7642 27.9796C18.1734 28.7422 17.3875 29.3251 16.4947 29.6698C16.4139 29.2254 16.286 28.7898 16.1123 28.3705C15.7916 27.5959 15.3215 26.8921 14.7287 26.2993C14.1359 25.7065 13.4321 25.2363 12.6575 24.9156C11.8829 24.5949 11.0527 24.43 10.2144 24.4302C8.95188 24.4302 7.71773 24.8046 6.66799 25.506C5.61826 26.2074 4.8001 27.2044 4.31696 28.3708C3.83382 29.5372 3.70741 30.8206 3.95371 32.0589C4.20001 33.2971 4.80797 34.4345 5.70069 35.3272C6.59341 36.22 7.73081 36.8279 8.96905 37.0742C10.2073 37.3205 11.4908 37.1941 12.6572 36.711C13.8236 36.2278 14.8205 35.4097 15.5219 34.3599ZM28.5665 31.2215L28.5666 31.2092L28.5665 31.1997C28.5725 30.253 28.9513 29.3465 29.6209 28.6768C30.2937 28.0041 31.2053 27.625 32.1567 27.6224C32.8667 27.6224 33.5609 27.833 34.1513 28.2274C34.7417 28.6219 35.2018 29.1826 35.4736 29.8387C35.7453 30.4947 35.8164 31.2166 35.6779 31.913C35.5393 32.6094 35.1974 33.2491 34.6953 33.7512C34.1932 34.2533 33.5535 34.5952 32.8571 34.7338C32.1607 34.8723 31.4388 34.8012 30.7828 34.5295C30.1267 34.2577 29.566 33.7976 29.1715 33.2072C28.7787 32.6192 28.5682 31.9284 28.5665 31.2215ZM6.22518 30.8136C6.22518 31.6025 6.45914 32.3738 6.89748 33.0298C7.33582 33.6859 7.95885 34.1972 8.68778 34.4991C9.41671 34.801 10.2188 34.88 10.9926 34.7261C11.7665 34.5722 12.4773 34.1922 13.0352 33.6343C13.5931 33.0764 13.973 32.3656 14.1269 31.5918C14.2809 30.818 14.2018 30.0159 13.8999 29.287C13.598 28.558 13.0867 27.935 12.4307 27.4967C11.7746 27.0583 11.0034 26.8244 10.2144 26.8244C9.15654 26.8249 8.14218 27.2453 7.39417 27.9933C6.64617 28.7414 6.22571 29.7557 6.22518 30.8136ZM28.5665 8.87248C28.5665 9.58255 28.777 10.2767 29.1715 10.8671C29.566 11.4575 30.1267 11.9176 30.7828 12.1894C31.4388 12.4611 32.1607 12.5322 32.8571 12.3937C33.5535 12.2551 34.1932 11.9132 34.6953 11.4111C35.1974 10.909 35.5393 10.2693 35.6779 9.57289C35.8164 8.87646 35.7453 8.1546 35.4736 7.49858C35.2018 6.84256 34.7417 6.28185 34.1513 5.88736C33.5609 5.49286 32.8667 5.2823 32.1567 5.2823C31.2053 5.28494 30.2937 5.66404 29.6209 6.33676C28.9482 7.00948 28.5691 7.92112 28.5665 8.87248Z" fill="#6E7191"/>
</svg>
