<svg width="40" height="41" viewBox="0 0 40 41" fill="none" xmlns="http://www.w3.org/2000/svg">
<g clip-path="url(#clip0_1_3587)">
<path d="M16.4683 25.6672C16.6149 25.7281 16.7721 25.7594 16.9309 25.7591C17.0898 25.7595 17.2472 25.7283 17.394 25.6674C17.5408 25.6064 17.674 25.5169 17.7859 25.4041L27.4129 15.7341C27.6377 15.5065 27.7637 15.1995 27.7637 14.8796C27.7637 14.5597 27.6377 14.2527 27.4129 14.0251C27.1853 13.8003 26.8783 13.6743 26.5584 13.6743C26.2385 13.6743 25.9315 13.8003 25.7039 14.0251L16.9319 22.8411L14.3499 20.2481C14.1223 20.0233 13.8153 19.8973 13.4954 19.8973C13.1755 19.8973 12.8685 20.0233 12.6409 20.2481C12.4161 20.4757 12.29 20.7827 12.29 21.1026C12.29 21.4225 12.4161 21.7295 12.6409 21.9571L16.0769 25.4041C16.1887 25.5168 16.3217 25.6062 16.4683 25.6672Z" fill="#6E7191"/>
<path fill-rule="evenodd" clip-rule="evenodd" d="M15.1451 36.6091C16.564 37.6244 18.2695 38.1611 20.0141 38.1411C21.7519 38.1682 23.4506 37.6247 24.8501 36.5941L33.2281 31.4191C34.1975 30.6217 34.9894 29.6303 35.5529 28.5087C36.1164 27.387 36.4391 26.1599 36.5001 24.9061V12.9281C36.4509 11.6356 36.0332 10.3841 35.2964 9.32109C34.5595 8.25806 33.5342 7.4278 32.3411 6.92813L22.8511 3.91313C20.9955 3.31664 18.9997 3.31664 17.1441 3.91313L7.65412 6.92813C6.46108 7.4278 5.43573 8.25806 4.69887 9.32109C3.96201 10.3841 3.54436 11.6356 3.49512 12.9281V24.9221C3.55831 26.1753 3.88189 27.4016 4.44524 28.5228C5.00859 29.6439 5.79935 30.6355 6.76712 31.4341L15.1451 36.6091ZM8.50512 9.20413L17.9951 6.18913C19.3142 5.7869 20.7222 5.77995 22.0451 6.16913L31.5351 9.18813C32.2607 9.52319 32.8829 10.0471 33.3366 10.7051C33.7903 11.363 34.0589 12.1308 34.1141 12.9281V24.9221C34.0544 25.799 33.8211 26.6553 33.4276 27.4412C33.0341 28.2271 32.4884 28.927 31.8221 29.5001L23.4441 34.6751C22.4303 35.353 21.2382 35.7148 20.0186 35.7148C18.7991 35.7148 17.6069 35.353 16.5931 34.6751L8.21512 29.5001C7.55073 28.9255 7.00647 28.2253 6.61365 27.4396C6.22082 26.654 5.98716 25.7984 5.92612 24.9221V12.9441C5.97693 12.1456 6.2437 11.3759 6.69793 10.7171C7.15216 10.0584 7.7768 9.53547 8.50512 9.20413Z" fill="#6E7191"/>
</g>
<defs>
<clipPath id="clip0_1_3587">
<rect width="39.999" height="39.999" fill="white" transform="translate(-0.000976562 0.805603)"/>
</clipPath>
</defs>
</svg>
