<svg width="40" height="41" viewBox="0 0 40 41" fill="none" xmlns="http://www.w3.org/2000/svg">
<path d="M20.0039 23.6351C19.6731 23.6327 19.3566 23.5003 19.1227 23.2664C18.8888 23.0325 18.7564 22.716 18.754 22.3852V14.0533C18.7564 13.7225 18.8888 13.406 19.1227 13.1721C19.3566 12.9382 19.6731 12.8058 20.0039 12.8034C20.3346 12.8058 20.6512 12.9382 20.885 13.1721C21.1189 13.406 21.2514 13.7225 21.2537 14.0533V22.3852C21.2514 22.716 21.1189 23.0325 20.885 23.2664C20.6512 23.5003 20.3346 23.6327 20.0039 23.6351Z" fill="#6E7191"/>
<path fill-rule="evenodd" clip-rule="evenodd" d="M20.0029 38.6332C16.8718 38.6332 13.8111 37.7047 11.2077 35.9652C8.60426 34.2257 6.57516 31.7532 5.37695 28.8605C4.17873 25.9677 3.86523 22.7846 4.47607 19.7137C5.08691 16.6428 6.59467 13.822 8.80868 11.608C11.0227 9.39396 13.8435 7.8862 16.9144 7.27535C19.9853 6.66451 23.1684 6.97802 26.0612 8.17623C28.9539 9.37444 31.4264 11.4035 33.1659 14.0069C34.9055 16.6103 35.8339 19.6711 35.8339 22.8022C35.8302 26.9997 34.1611 31.0242 31.193 33.9923C28.2249 36.9604 24.2004 38.6295 20.0029 38.6332ZM20.0029 9.47085C17.3662 9.47085 14.7887 10.2527 12.5964 11.7176C10.4041 13.1825 8.69537 15.2645 7.68636 17.7005C6.67734 20.1365 6.41334 22.817 6.92773 25.403C7.44212 27.989 8.71181 30.3644 10.5762 32.2289C12.4406 34.0933 14.8161 35.363 17.4021 35.8774C19.9881 36.3918 22.6686 36.1278 25.1046 35.1187C27.5406 34.1097 29.6226 32.401 31.0875 30.2087C32.5524 28.0164 33.3342 25.4389 33.3342 22.8022C33.3295 19.268 31.9234 15.8798 29.4243 13.3808C26.9252 10.8817 23.5371 9.47562 20.0029 9.47085Z" fill="#6E7191"/>
<path d="M15.0045 5.30437H25.0033C25.334 5.30202 25.6505 5.16958 25.8844 4.9357C26.1183 4.70182 26.2507 4.38528 26.2531 4.05453C26.2507 3.72378 26.1183 3.40724 25.8844 3.17336C25.6505 2.93948 25.334 2.80704 25.0033 2.80469H15.0045C14.6738 2.80704 14.3572 2.93948 14.1233 3.17336C13.8895 3.40724 13.757 3.72378 13.7547 4.05453C13.757 4.38528 13.8895 4.70182 14.1233 4.9357C14.3572 5.16958 14.6738 5.30202 15.0045 5.30437Z" fill="#6E7191"/>
</svg>
