<svg width="41" height="41" viewBox="0 0 41 41" fill="none" xmlns="http://www.w3.org/2000/svg">
<path d="M29.3228 38.0774H12.6618C5.31475 38.0774 3.08203 35.8447 3.08203 28.4966V11.8357C3.08203 4.48858 5.31475 2.25586 12.6618 2.25586H15.1615C18.0772 2.25586 18.994 3.20574 20.1609 4.75555L22.6606 8.08813C23.2105 8.82104 23.2935 8.92103 24.3264 8.92103H29.3258C36.6728 8.92103 38.9056 11.1537 38.9056 18.5008V28.4996C38.9036 35.8447 36.6708 38.0774 29.3228 38.0774ZM12.6618 4.75555C6.69758 4.75555 5.58172 5.88841 5.58172 11.8357V28.4966C5.58172 34.4448 6.69758 35.5777 12.6628 35.5777H29.3228C35.287 35.5777 36.4039 34.4448 36.4039 28.4966V18.4978C36.4039 12.5496 35.288 11.4167 29.3228 11.4167H24.3234C23.6021 11.4902 22.8748 11.3573 22.2262 11.0333C21.5775 10.7094 21.0343 10.2077 20.6598 9.58694L18.1601 6.25536C17.2943 5.1055 17.0273 4.75555 15.1605 4.75555H12.6618Z" fill="#6E7191"/>
<path d="M34.3211 12.0546C33.9909 12.051 33.6753 11.9177 33.4425 11.6835C33.2096 11.4493 33.0781 11.133 33.0763 10.8028V8.50308C33.0763 5.87141 31.9554 4.75555 29.3237 4.75555H14.3256C13.9954 4.75241 13.6796 4.61963 13.4464 4.38583C13.2132 4.15203 13.0811 3.83594 13.0788 3.5057C13.0811 3.17495 13.2136 2.85842 13.4475 2.62453C13.6813 2.39065 13.9979 2.25822 14.3286 2.25586H29.3268C33.3552 2.25586 35.576 4.47158 35.576 8.50408V10.8038C35.5739 11.1356 35.4408 11.4531 35.2059 11.6874C34.9709 11.9216 34.6529 12.0536 34.3211 12.0546Z" fill="#6E7191"/>
<path d="M25.1593 25.7429H16.8293C16.4986 25.7406 16.182 25.6081 15.9481 25.3742C15.7143 25.1404 15.5818 24.8238 15.5795 24.4931C15.5818 24.1623 15.7143 23.8458 15.9481 23.6119C16.182 23.378 16.4986 23.2456 16.8293 23.2432H25.1593C25.49 23.2456 25.8066 23.378 26.0404 23.6119C26.2743 23.8458 26.4068 24.1623 26.4091 24.4931C26.4068 24.8238 26.2743 25.1404 26.0404 25.3742C25.8066 25.6081 25.49 25.7406 25.1593 25.7429Z" fill="#6E7191"/>
</svg>
