<svg width="41" height="41" viewBox="0 0 41 41" fill="none" xmlns="http://www.w3.org/2000/svg">
<g clip-path="url(#clip0_1_533)">
<path d="M10.5624 27.0675C9.70941 27.0665 8.50233 26.8361 7.71279 26.5306C7.32913 26.3821 6.95956 26.1996 6.60849 25.9852C6.25997 25.7719 5.93096 25.5282 5.62534 25.257C5.3197 24.9856 5.03873 24.6877 4.78573 24.3667C4.53126 24.0435 4.30627 23.6982 4.11339 23.3349C3.71614 22.586 3.4614 21.7698 3.36221 20.9279C3.16294 19.2542 3.58525 17.5655 4.54891 16.1826C5.51258 14.7997 6.95053 13.8188 8.58972 13.4262C8.75963 12.113 9.14567 10.8371 9.73218 9.64997C10.3039 8.4923 11.0585 7.43433 11.9668 6.51672C12.8743 5.59815 13.9239 4.83186 15.0753 4.24736C16.2558 3.64769 17.5274 3.24741 18.8385 3.06274C19.3988 2.98351 19.964 2.94362 20.5299 2.94336C21.698 2.94331 22.8598 3.11389 23.9786 3.44968C25.0815 3.78058 26.1312 4.26777 27.0958 4.89638C28.0647 5.52733 28.9376 6.29473 29.6874 7.17489C30.4561 8.07774 31.0871 9.08932 31.5598 10.1768C32.461 10.4487 33.3112 10.8672 34.0764 11.4154C34.8228 11.9499 35.4787 12.6006 36.019 13.3427C36.56 14.0844 36.9786 14.9081 37.2587 15.7824C37.546 16.6787 37.6838 17.6162 37.6665 18.5573C37.6505 19.4984 37.4797 20.4305 37.161 21.3161C36.85 22.1799 36.4026 22.9882 35.8357 23.7103C35.2695 24.433 34.5912 25.0602 33.8263 25.5679C33.0986 26.0512 32.3012 26.4205 31.4619 26.6628C31.4046 26.6835 31.3459 26.6999 31.2862 26.7117L31.2675 26.7165C31.2649 26.7171 31.2623 26.7171 31.2597 26.7165C31.191 26.7284 31.1215 26.7344 31.0517 26.7344C30.7322 26.7344 30.4257 26.6074 30.1998 26.3815C29.9739 26.1555 29.8469 25.8491 29.8469 25.5295C29.8469 25.3103 29.9066 25.0952 30.0197 24.9074C30.1329 24.7196 30.2952 24.5663 30.489 24.4639C30.495 24.4552 30.5035 24.4485 30.5134 24.4446C30.5438 24.4333 30.5739 24.422 30.6042 24.4104C30.6132 24.4068 30.6223 24.4033 30.6313 24.3999C33.321 23.3557 35.1908 20.9408 35.2434 18.1136C35.2969 15.2189 33.4824 13.1579 29.9962 12.1534C28.1686 8.15271 24.1414 5.3586 20.2025 5.3586C19.8243 5.3586 19.4465 5.38383 19.0716 5.43411C14.4334 6.05922 10.9183 11.1639 10.3213 15.5349C8.62469 15.922 7.54621 16.3678 6.82428 16.9807C5.95474 17.7189 5.61269 18.7241 5.77915 20.0539C6.10878 22.6904 7.99873 24.4373 10.69 24.6624C11.0053 24.6686 11.3056 24.7982 11.5265 25.0234C11.7473 25.2486 11.871 25.5514 11.871 25.8668C11.871 26.1864 11.7441 26.4928 11.5181 26.7188C11.2922 26.9447 10.9857 27.0717 10.6662 27.0717C10.631 27.0718 10.5964 27.0705 10.5624 27.0675Z" fill="#6E7191"/>
<path d="M17.3099 20.4953L14.994 24.5117C14.5254 25.3185 14.2912 26.1165 14.2912 26.8452C14.2854 27.3779 14.4232 27.9023 14.6903 28.3633C15.3062 29.4301 16.5465 30.02 18.1774 30.02H19.292V36.1995H19.2958C19.3201 36.5014 19.4571 36.7831 19.6797 36.9885C19.9023 37.1939 20.1941 37.3079 20.497 37.3079C20.7999 37.3079 21.0916 37.1939 21.3142 36.9885C21.5368 36.7831 21.6739 36.5014 21.6981 36.1995H21.7019V30.02H22.8096C24.4404 30.02 25.6809 29.4301 26.2968 28.3633C26.9127 27.2876 26.8 25.9256 25.9846 24.5117L23.6683 20.4953C22.8531 19.0813 21.7254 18.3008 20.4935 18.3008C19.2616 18.3008 18.134 19.0813 17.3099 20.4953ZM17.0652 27.0537C16.7917 26.5501 16.8744 25.8518 17.2942 25.0797L18.992 21.9712C19.4116 21.1992 19.9457 20.776 20.4928 20.776C21.0399 20.776 21.5739 21.1992 21.9936 21.9712L23.6915 25.0797C23.9521 25.5495 24.0795 25.9928 24.0795 26.3823C24.083 26.6158 24.0283 26.8466 23.9204 27.0538C23.6471 27.5572 23.0302 27.8326 22.1908 27.8326H18.7949C17.9554 27.8326 17.3385 27.5572 17.0652 27.0537Z" fill="#6E7191"/>
</g>
<defs>
<clipPath id="clip0_1_533">
<rect width="40" height="40" fill="white" transform="translate(0.996582 0.00390625)"/>
</clipPath>
</defs>
</svg>
