<svg width="41" height="41" viewBox="0 0 41 41" fill="none" xmlns="http://www.w3.org/2000/svg">
<g clip-path="url(#clip0_1_457)">
<path d="M21.2565 37.2859H20.82C18.3936 37.2891 16.0255 36.5408 14.0417 35.1438C12.0525 33.7533 10.543 31.7805 9.72135 29.4969C9.38074 28.5078 9.18408 27.475 9.13737 26.43V26.4139C9.04438 25.9829 9.04478 25.537 9.13737 25.106C9.22996 24.675 9.41272 24.2686 9.67448 23.9139C10.1524 23.3277 10.8286 22.9364 11.5749 22.8138L13.2106 22.7259H28.8786L30.5124 22.8138C31.259 22.9356 31.9354 23.327 32.4128 23.9139C32.6749 24.2685 32.8586 24.6748 32.9518 25.1058C33.0451 25.5367 33.0458 25.9826 32.9538 26.4139V26.4278C32.9063 27.4727 32.7096 28.5056 32.3698 29.4949C31.5477 31.7786 30.0387 33.7518 28.0505 35.1438C26.0617 36.543 23.6882 37.2914 21.2565 37.2859ZM14.9938 24.9969L13.7321 25.0569C13.172 25.1345 12.6556 25.4021 12.2692 25.815C12.0705 26.0497 11.929 26.3277 11.8571 26.6267C11.7852 26.9258 11.7849 27.2375 11.8551 27.5369V27.545C11.8908 28.2682 12.0419 28.9809 12.3044 29.6558C13.0474 31.2916 14.2561 32.6723 15.779 33.6255C17.3018 34.5788 19.0718 35.0624 20.8678 35.0159H21.2077C23.0039 35.0633 24.7745 34.5801 26.2975 33.6267C27.8206 32.6734 29.0289 31.2921 29.7712 29.6558C30.0326 28.9806 30.1835 28.2681 30.2194 27.545V27.535C30.2895 27.2356 30.2889 26.924 30.2165 26.6253C30.144 26.3265 30.0018 26.049 29.8024 25.815C29.4171 25.4007 28.9002 25.1328 28.3395 25.0569L27.0778 24.9969H14.9938ZM20.943 17.3699C19.9808 17.3724 19.0272 17.1838 18.1383 16.8152C17.2495 16.4467 16.4434 15.9056 15.7653 15.2229C15.0829 14.5447 14.5409 13.7377 14.1725 12.8489C13.8042 11.9601 13.6162 11.0071 13.6188 10.045C13.6163 9.08239 13.8042 8.12884 14.1725 7.23954C14.5409 6.35023 15.0829 5.54267 15.7653 4.86381C16.4434 4.18126 17.2495 3.64023 18.1383 3.27201C19.0272 2.90379 19.9809 2.7157 20.943 2.71879C21.9057 2.71572 22.8592 2.90381 23.7487 3.27201C24.6382 3.64021 25.4458 4.18122 26.1247 4.86381C26.8066 5.54295 27.3473 6.35053 27.7155 7.23978C28.0837 8.12904 28.2725 9.08251 28.2702 10.045C28.2726 11.007 28.0837 11.9599 27.7155 12.8487C27.3473 13.7374 26.8066 14.5444 26.1247 15.2229C25.4457 15.9056 24.6382 16.4467 23.7487 16.8152C22.8592 17.1837 21.9058 17.3723 20.943 17.3699ZM20.943 4.96976C19.5994 4.97162 18.3109 5.5063 17.361 6.45658C16.4111 7.40686 15.877 8.69523 15.8757 10.0389C15.8772 11.3824 16.4121 12.6704 17.362 13.6206C18.3118 14.5709 19.5995 15.1058 20.943 15.1079C22.287 15.1064 23.5756 14.5716 24.526 13.6214C25.4765 12.6711 26.0105 11.3828 26.0124 10.0389C26.0092 8.69574 25.4744 7.40868 24.5241 6.45951C23.5738 5.51034 22.2862 4.97647 20.943 4.97489V4.96976Z" fill="#6E7191"/>
</g>
<defs>
<clipPath id="clip0_1_457">
<rect width="40" height="40" fill="white" transform="translate(0.997559 0.00390625)"/>
</clipPath>
</defs>
</svg>
