<svg width="41" height="41" viewBox="0 0 41 41" fill="none" xmlns="http://www.w3.org/2000/svg">
<g clip-path="url(#clip0_1_3833)">
<path d="M32.0604 35.9509H7.95983C7.47792 35.9519 6.99836 35.8871 6.53405 35.7581C6.09439 35.635 5.67333 35.4533 5.2821 35.218C4.90166 34.9893 4.55236 34.7124 4.24303 34.394C3.93625 34.079 3.6699 33.7268 3.45007 33.3459C3.22948 32.9659 3.05834 32.5593 2.9403 32.136C2.8199 31.7088 2.75467 31.2678 2.74694 30.824C2.73855 30.3678 2.79254 29.9126 2.9071 29.4709C3.02688 29.0041 3.21018 28.5558 3.45202 28.1389L15.5048 7.30103C15.7454 6.88375 16.0416 6.50127 16.3856 6.16406C16.7118 5.84595 17.0798 5.57285 17.4784 5.35205C17.8664 5.13745 18.2799 4.9737 18.7098 4.86499C19.1348 4.75729 19.5713 4.70301 20.0096 4.70313C20.448 4.70305 20.8855 4.75733 21.3104 4.86499C21.7403 4.9737 22.1538 5.13745 22.5419 5.35205C22.9405 5.57316 23.3075 5.84657 23.6337 6.16504C23.9776 6.50224 24.2749 6.88473 24.5155 7.302L36.5663 28.1399C36.8095 28.5564 36.9935 29.0047 37.1132 29.4719C37.2277 29.9136 37.2817 30.3688 37.2733 30.825C37.2656 31.2688 37.2003 31.7097 37.0799 32.137C36.9602 32.5597 36.7892 32.966 36.5702 33.3469C36.3504 33.7278 36.084 34.0799 35.7772 34.395C35.4679 34.7134 35.1186 34.9903 34.7382 35.219C34.3476 35.4543 33.9272 35.636 33.4882 35.759C33.0231 35.8876 32.5429 35.9521 32.0604 35.9509ZM19.9979 7.0791C18.2149 7.0791 17.2301 8.57899 16.4471 9.98999L6.92858 27.123C6.84058 27.279 6.75307 27.4361 6.65807 27.6011C6.20762 28.3318 5.83314 29.1069 5.54089 29.9141C5.39377 30.2847 5.32639 30.6824 5.34362 31.0808C5.36085 31.4792 5.4629 31.8695 5.64147 32.2261C5.72057 32.3696 5.81473 32.5036 5.9237 32.626C6.03045 32.7422 6.14995 32.8465 6.27917 32.937C6.40766 33.0277 6.54444 33.1065 6.68737 33.1721C6.83562 33.2392 6.98835 33.2959 7.1444 33.342C7.46847 33.4346 7.79986 33.4957 8.13561 33.5249C8.43561 33.5539 8.76496 33.5681 9.16296 33.5681C9.41496 33.5681 9.66342 33.5631 9.89342 33.5571C10.1044 33.5571 10.3012 33.5481 10.4852 33.5481H29.5243C29.9343 33.5481 30.4131 33.5479 30.9071 33.5149C31.4004 33.4902 31.8908 33.4261 32.3739 33.323C32.609 33.2714 32.8408 33.2047 33.0673 33.123C33.2838 33.044 33.493 32.946 33.6923 32.8301C33.8839 32.7182 34.0608 32.5838 34.2206 32.4299C34.3783 32.2724 34.5134 32.0933 34.621 31.8979C34.7781 31.5938 34.8647 31.2584 34.8749 30.9163C34.8851 30.5741 34.8183 30.2338 34.6796 29.9209C34.5513 29.5799 34.394 29.2508 34.2089 28.937C34.0229 28.615 33.8179 28.304 33.6229 28.002C33.4229 27.693 33.2319 27.4019 33.0799 27.1289L23.5624 9.99609C22.7854 8.58209 21.7989 7.0791 19.9979 7.0791Z" fill="#6E7191"/>
<path d="M20.3422 27.315C20.5795 27.315 20.8115 27.3854 21.0088 27.5173C21.2062 27.6491 21.36 27.8365 21.4508 28.0558C21.5416 28.2751 21.5654 28.5163 21.5191 28.7491C21.4728 28.9819 21.3585 29.1957 21.1907 29.3635C21.0229 29.5314 20.809 29.6457 20.5763 29.692C20.3435 29.7383 20.1022 29.7145 19.8829 29.6237C19.6637 29.5328 19.4762 29.379 19.3444 29.1817C19.2125 28.9844 19.1422 28.7524 19.1422 28.515C19.1422 28.1968 19.2686 27.8915 19.4936 27.6665C19.7187 27.4414 20.0239 27.315 20.3422 27.315Z" fill="#6E7191"/>
<path d="M20.3422 13.532C20.6604 13.532 20.9656 13.6584 21.1907 13.8835C21.4157 14.1085 21.5422 14.4138 21.5422 14.732V24.809C21.5422 24.9673 21.511 25.1239 21.4504 25.2701C21.3899 25.4163 21.3011 25.5492 21.1892 25.6611C21.0773 25.773 20.9445 25.8617 20.7983 25.9223C20.6521 25.9828 20.4954 26.014 20.3372 26.014C20.1789 26.014 20.0222 25.9828 19.876 25.9223C19.7298 25.8617 19.597 25.773 19.4851 25.6611C19.3732 25.5492 19.2844 25.4163 19.2239 25.2701C19.1633 25.1239 19.1322 24.9673 19.1322 24.809V14.732C19.1322 14.5736 19.1635 14.4167 19.2244 14.2705C19.2854 14.1242 19.3747 13.9915 19.4872 13.8799C19.5996 13.7684 19.7331 13.6802 19.8799 13.6205C20.0266 13.5608 20.1837 13.5307 20.3422 13.532Z" fill="#6E7191"/>
</g>
<defs>
<clipPath id="clip0_1_3833">
<rect width="40" height="40" fill="white" transform="translate(0.00878906 0.327148)"/>
</clipPath>
</defs>
</svg>
